<svg width="2000" height="2008" viewBox="0 0 2000 2008" fill="none" xmlns="http://www.w3.org/2000/svg">
<g clip-path="url(#clip0_3067_4)" filter="url(#filter0_d_3067_4)">
<path d="M741.065 1108.45C741.839 1108.37 758.831 1107.04 792.041 1104.48C813.443 1102.83 830.458 1101.77 843.084 1101.29C888.6 1099.55 937.128 1099.43 984.122 1100.96C1021.72 1102.19 1074.31 1102.26 1097.43 1102.34C1118.6 1102.4 1140.89 1102.86 1164.29 1103.7C1202.53 1105.08 1236.6 1106.68 1266.5 1108.48C1271.07 1108.75 1275.5 1109.1 1279.77 1109.52C1279.92 1109.54 1280.07 1109.59 1280.21 1109.66C1280.35 1109.74 1280.47 1109.85 1280.56 1109.97C1280.65 1110.1 1280.72 1110.24 1280.75 1110.4C1280.78 1110.55 1280.78 1110.71 1280.75 1110.86C1280.36 1112.74 1279.44 1117.8 1277.99 1126.02C1270.19 1170.28 1244.28 1208.83 1215.65 1242.46C1202.44 1257.97 1187.85 1271.85 1171.87 1284.08C1141.29 1307.51 1107.16 1323.58 1069.46 1332.31C1051.97 1336.36 1033.83 1337.69 1015.03 1336.3C1010.16 1335.94 1004.5 1335.05 998.042 1333.63C982.655 1330.25 970.89 1327.29 956.158 1321.9C925.667 1310.73 895.03 1296.09 867.754 1277.2C859.941 1271.8 851.164 1265.34 841.426 1257.85C819.497 1240.97 799.692 1221.01 782.012 1197.97C776.32 1190.56 771.841 1183.95 768.578 1178.15C760.147 1163.2 752.507 1146.72 745.656 1128.7C743.614 1123.31 741.313 1115.04 740.422 1109.3C740.408 1109.2 740.413 1109.1 740.438 1109C740.462 1108.91 740.506 1108.82 740.566 1108.74C740.626 1108.66 740.701 1108.59 740.786 1108.54C740.872 1108.49 740.967 1108.46 741.065 1108.45Z" fill="#919191"/>
<path d="M1430.2 2000H1034.52L1042.63 1451.91C1042.64 1451.69 1042.72 1451.47 1042.88 1451.31C1043.03 1451.15 1043.24 1451.06 1043.46 1451.05C1065.32 1450.09 1079.99 1449.91 1098.03 1448.06C1103.51 1447.5 1107.76 1446.92 1110.77 1446.34C1116.5 1445.21 1122.96 1444.6 1127.74 1443.67C1154.69 1438.5 1179.99 1427.86 1204.02 1415.23C1228.62 1402.29 1251.73 1382.08 1271.38 1361.61C1274.49 1358.37 1281.21 1350.9 1291.55 1339.21C1309.94 1318.38 1324.37 1293.53 1337.34 1267.19C1342.19 1257.36 1347.25 1245.44 1352.52 1231.44C1365.65 1196.5 1376.81 1159.85 1384.42 1122.83C1384.46 1122.62 1384.59 1122.43 1384.77 1122.31C1384.95 1122.19 1385.16 1122.15 1385.38 1122.19C1393.7 1123.67 1404.82 1125.76 1418.74 1128.45C1445.18 1133.55 1470.82 1141.74 1495.66 1153.02C1521.35 1164.66 1544.37 1181.02 1564.71 1202.1C1578.9 1216.8 1590.64 1230.98 1599.94 1244.65C1616.6 1269.15 1629.45 1295.25 1641.08 1322.56C1641.26 1323 1641.32 1323.48 1641.23 1323.95C1641.15 1324.42 1640.92 1324.85 1640.59 1325.2C1636.75 1329.18 1634.52 1331.5 1633.91 1332.16C1579.54 1390.39 1510.53 1464.26 1426.89 1553.78C1424.81 1556 1424.33 1558.03 1424.34 1561.26C1424.72 1649.45 1425.47 1726.32 1426.59 1791.88C1427.78 1861.25 1428.98 1930.62 1430.2 2000ZM1134.15 1500.48C1134.15 1491.55 1130.6 1482.98 1124.28 1476.66C1117.96 1470.34 1109.39 1466.79 1100.46 1466.79C1091.52 1466.79 1082.95 1470.34 1076.63 1476.66C1070.31 1482.98 1066.76 1491.55 1066.76 1500.48C1066.76 1509.42 1070.31 1517.99 1076.63 1524.31C1082.95 1530.63 1091.52 1534.18 1100.46 1534.18C1109.39 1534.18 1117.96 1530.63 1124.28 1524.31C1130.6 1517.99 1134.15 1509.42 1134.15 1500.48ZM1129.33 1715.47C1129.33 1706.92 1125.94 1698.72 1119.89 1692.68C1113.85 1686.63 1105.65 1683.23 1097.1 1683.23C1088.55 1683.23 1080.34 1686.63 1074.3 1692.68C1068.25 1698.72 1064.86 1706.92 1064.86 1715.47C1064.86 1724.02 1068.25 1732.22 1074.3 1738.27C1080.34 1744.32 1088.55 1747.71 1097.1 1747.71C1105.65 1747.71 1113.85 1744.32 1119.89 1738.27C1125.94 1732.22 1129.33 1724.02 1129.33 1715.47ZM1127.51 1907.44C1127.51 1899.13 1124.2 1891.16 1118.33 1885.28C1112.45 1879.4 1104.47 1876.09 1096.16 1876.09C1087.85 1876.09 1079.87 1879.4 1073.99 1885.28C1068.11 1891.16 1064.81 1899.13 1064.81 1907.44C1064.81 1915.76 1068.11 1923.73 1073.99 1929.61C1079.87 1935.49 1087.85 1938.79 1096.16 1938.79C1104.47 1938.79 1112.45 1935.49 1118.33 1929.61C1124.2 1923.73 1127.51 1915.76 1127.51 1907.44Z" fill="#919191"/>
<path d="M1016.2 2000H591.361C590.12 1856.46 588.338 1712.91 586.014 1569.38C585.849 1559.01 585.657 1548.57 585.439 1538.07C585.379 1534.86 584.939 1531.76 584.119 1528.78C583.919 1528.04 583.555 1527.36 583.054 1526.79C582.554 1526.22 581.931 1525.77 581.232 1525.47C578.833 1524.45 576.644 1522.97 574.666 1521.02C574.276 1520.64 573.845 1520.29 573.38 1519.99L328.609 1361.73C328.393 1361.59 328.232 1361.38 328.154 1361.13C328.076 1360.88 328.085 1360.62 328.18 1360.37C337.972 1335.78 349.38 1312.52 362.405 1290.59C368.474 1280.36 378.163 1267.76 383.882 1260.36C390.455 1251.86 397.705 1243.69 405.631 1235.86C420.859 1220.81 436.437 1205.65 454.069 1193.55C468.207 1183.83 483.018 1175.31 498.502 1167.98C525.868 1155.03 554.283 1144.53 583.747 1136.47C602.664 1131.29 614.926 1128.17 631.925 1124.94C632.097 1124.91 632.274 1124.92 632.444 1124.95C632.614 1124.99 632.775 1125.07 632.916 1125.17C633.056 1125.27 633.174 1125.41 633.262 1125.56C633.35 1125.71 633.405 1125.88 633.426 1126.05C633.967 1130.61 634.907 1135.68 636.246 1141.27C641.337 1162.53 648.477 1184.71 657.667 1207.81C664.315 1224.5 672.403 1240.01 681.931 1254.35C697.535 1277.81 714.317 1299.48 732.275 1319.34C745.62 1334.1 763.916 1349.46 778.524 1361.41C799.235 1378.36 822.612 1393.04 848.654 1405.44C879.912 1420.32 908.44 1430.38 941.875 1437.8C970.301 1444.11 995.716 1449.26 1023.17 1450.81C1023.46 1450.83 1023.72 1450.95 1023.92 1451.16C1024.11 1451.37 1024.22 1451.64 1024.21 1451.93L1016.2 2000Z" fill="#919191"/>
<path d="M949.009 1420.21C949.017 1420.25 949.016 1420.29 949.005 1420.32C948.993 1420.36 948.973 1420.4 948.945 1420.42C948.917 1420.45 948.882 1420.47 948.844 1420.48C948.806 1420.5 948.765 1420.5 948.727 1420.49L918.879 1413.12C918.767 1413.1 918.662 1413.04 918.571 1412.97C918.48 1412.9 918.406 1412.81 918.354 1412.71C918.301 1412.61 918.271 1412.49 918.267 1412.38C918.262 1412.26 918.282 1412.15 918.326 1412.04C918.747 1411.02 919.044 1410.14 919.217 1409.42C920.947 1402.26 925.008 1384.96 931.4 1357.53C932.72 1351.88 930.554 1346.96 924.982 1345.21C919.917 1343.64 914.671 1347.22 913.453 1352.04C912.445 1356.04 908.163 1374.24 900.605 1406.65C900.593 1406.7 900.572 1406.74 900.542 1406.78C900.512 1406.82 900.474 1406.85 900.432 1406.87C900.389 1406.9 900.342 1406.91 900.294 1406.92C900.246 1406.92 900.198 1406.91 900.154 1406.9L872.912 1396.62C872.794 1396.58 872.688 1396.51 872.599 1396.42C872.511 1396.33 872.443 1396.22 872.4 1396.1C872.357 1395.98 872.34 1395.86 872.351 1395.73C872.361 1395.61 872.399 1395.49 872.46 1395.38C873.603 1393.35 874.378 1391.85 874.784 1390.88C882.319 1372.93 889.313 1356.33 895.765 1341.07C896.961 1338.23 897.886 1335.47 896.837 1332.67C894.333 1325.97 886.707 1323.8 881.394 1328.94C880.394 1329.91 879.247 1331.91 877.954 1334.95C872.254 1348.35 864.842 1365.95 855.72 1387.75C855.69 1387.82 855.646 1387.89 855.589 1387.94C855.533 1388 855.466 1388.04 855.393 1388.06C855.32 1388.09 855.242 1388.1 855.164 1388.1C855.087 1388.09 855.011 1388.07 854.942 1388.03L830.216 1375.05C830.017 1374.95 829.866 1374.77 829.795 1374.56C829.723 1374.35 829.737 1374.11 829.832 1373.91C837.826 1357.38 846.877 1338.69 856.984 1317.85C858.931 1313.84 859.887 1311.03 859.849 1309.42C859.646 1299.54 846.346 1296.8 842.004 1305.67C837.085 1315.71 827.704 1335.1 813.859 1363.84C813.828 1363.9 813.784 1363.96 813.73 1364C813.676 1364.04 813.613 1364.08 813.545 1364.09C813.476 1364.11 813.405 1364.12 813.335 1364.11C813.265 1364.09 813.197 1364.07 813.137 1364.03C804.399 1358.22 795.92 1351.85 787.7 1344.93C787.595 1344.85 787.529 1344.72 787.516 1344.58C787.504 1344.45 787.545 1344.31 787.632 1344.2C788.911 1342.67 789.937 1341.29 790.712 1340.06C797.897 1328.77 802.286 1322.28 807.768 1312.77C810.55 1307.94 813.912 1303.36 817.852 1299.01C817.965 1298.89 818.059 1298.76 818.134 1298.62L824.09 1287.59C824.173 1287.45 824.23 1287.29 824.26 1287.12C825.124 1282.33 823.872 1278.8 820.503 1276.53C815.811 1273.37 809.55 1275.06 807.023 1279.86C803.917 1285.76 800.469 1290.88 796.679 1295.23C795.867 1296.16 794.171 1298.82 791.592 1303.2C785.467 1313.6 778.078 1325.02 773.667 1331.67C773.576 1331.8 773.456 1331.92 773.315 1332.01C773.174 1332.09 773.016 1332.15 772.851 1332.17C772.687 1332.19 772.521 1332.17 772.364 1332.12C772.206 1332.07 772.062 1331.98 771.941 1331.87L753.397 1314.54C753.289 1314.45 753.223 1314.31 753.21 1314.17C753.198 1314.02 753.24 1313.88 753.329 1313.77C756.593 1309.54 761.473 1303.68 767.971 1296.19C768.001 1296.16 769.046 1294.75 771.107 1291.95C776.499 1284.63 783.884 1275.1 793.261 1263.36C798.337 1257.01 791.896 1246.47 783.38 1248.95C781.199 1249.59 779.296 1250.9 777.672 1252.87C770.159 1262.02 766.053 1268.07 759.872 1275.42C756.566 1279.37 754.637 1282.91 751.829 1286.16C748.512 1289.99 744.696 1294.5 740.379 1299.69C740.318 1299.76 740.242 1299.82 740.155 1299.86C740.069 1299.9 739.975 1299.92 739.88 1299.92C739.785 1299.91 739.692 1299.89 739.606 1299.85C739.521 1299.81 739.446 1299.75 739.386 1299.68L720.819 1276.99C720.759 1276.92 720.715 1276.83 720.689 1276.74C720.664 1276.65 720.658 1276.55 720.672 1276.46C720.685 1276.36 720.719 1276.27 720.769 1276.19C720.82 1276.11 720.887 1276.04 720.966 1275.99C722.229 1275.1 723.406 1274.2 724.496 1273.29C732.528 1266.54 739.315 1260.23 744.857 1254.36C750.813 1248.05 753.893 1245.34 761.349 1238.53C764.869 1235.31 766.816 1232.85 767.192 1231.15C768.185 1226.69 766.335 1222.48 762.15 1220.39C758.322 1218.46 754.34 1219.38 750.204 1223.15C744.778 1228.09 737.153 1235.02 730.859 1241.77C726.437 1246.53 720.526 1252.02 713.126 1258.24C711.667 1259.47 710.426 1260.24 709.403 1260.57C709.221 1260.62 709.025 1260.62 708.845 1260.56C708.664 1260.49 708.508 1260.37 708.399 1260.22L697.446 1244.43C697.364 1244.31 697.33 1244.17 697.351 1244.02C697.372 1243.88 697.447 1243.76 697.559 1243.67C700.921 1241.04 705.271 1237.27 710.61 1232.34C720.65 1223.08 733.938 1216.45 744.587 1207.37C749.595 1203.09 756.296 1197.78 751.772 1190.39C748.783 1185.5 741.992 1184.55 737.807 1188.2C730.813 1194.34 726.572 1197.9 725.083 1198.89C715.799 1205.03 710.227 1208.43 703.064 1214.17C698.973 1217.45 693.998 1221.82 688.14 1227.29C688.05 1227.37 687.943 1227.43 687.826 1227.47C687.708 1227.5 687.585 1227.51 687.465 1227.48C687.346 1227.46 687.233 1227.41 687.137 1227.33C687.041 1227.26 686.963 1227.16 686.91 1227.05L675.732 1203.67C675.668 1203.54 675.632 1203.4 675.626 1203.25C675.62 1203.1 675.643 1202.96 675.695 1202.82C675.747 1202.69 675.826 1202.56 675.927 1202.46C676.028 1202.35 676.15 1202.27 676.284 1202.21C702.056 1191.44 718.597 1184.5 725.907 1181.39C733.848 1178.02 733.803 1166.56 725.275 1163.77C723.079 1163.06 720.372 1163.37 717.153 1164.72C690.923 1175.68 675.021 1182.35 669.448 1184.73C669.36 1184.77 669.265 1184.79 669.168 1184.79C669.072 1184.78 668.977 1184.76 668.889 1184.73C668.801 1184.69 668.723 1184.63 668.658 1184.56C668.593 1184.49 668.543 1184.4 668.512 1184.31L662.432 1166.35C662.407 1166.28 662.398 1166.2 662.406 1166.13C662.413 1166.05 662.438 1165.97 662.477 1165.91C662.517 1165.84 662.571 1165.78 662.635 1165.74C662.699 1165.69 662.772 1165.66 662.85 1165.64C686.696 1160.79 703.541 1157.27 713.385 1155.09C720.503 1153.51 723.357 1145.76 718.834 1139.9C716.54 1136.93 712.803 1136.01 707.621 1137.13C697.74 1139.26 681.037 1142.73 657.514 1147.54C657.317 1147.58 657.111 1147.54 656.943 1147.43C656.774 1147.32 656.655 1147.15 656.612 1146.95L651.163 1122.27C651.137 1122.16 651.134 1122.04 651.154 1121.93C651.174 1121.81 651.217 1121.7 651.28 1121.61C651.343 1121.51 651.425 1121.43 651.522 1121.36C651.618 1121.3 651.726 1121.25 651.84 1121.23C674.859 1116.82 698.037 1113.45 721.372 1111.14C721.553 1111.12 721.735 1111.17 721.882 1111.28C722.028 1111.39 722.128 1111.55 722.161 1111.73C725.117 1127.72 730.419 1142.14 737.909 1158.31C743.767 1170.97 748.422 1180.32 751.874 1186.35C762.037 1204.11 775.45 1220.24 790.565 1236.57C811.806 1259.56 836.702 1278.58 862.759 1296.16C887.858 1313.09 916.86 1326.86 945.072 1337.47C950.983 1339.68 956.683 1341.98 962.173 1344.35C981.033 1352.5 1003.48 1354.49 1024.95 1355.36C1025.07 1355.36 1025.19 1355.41 1025.28 1355.51C1025.37 1355.6 1025.42 1355.72 1025.42 1355.85L1024.3 1431.76C1024.3 1431.84 1024.29 1431.92 1024.25 1432C1024.22 1432.07 1024.17 1432.14 1024.11 1432.19C1024.04 1432.25 1023.97 1432.29 1023.89 1432.32C1023.82 1432.34 1023.73 1432.35 1023.65 1432.34L1008.26 1431.11C1008.13 1431.1 1008 1431.04 1007.91 1430.93C1007.83 1430.83 1007.78 1430.7 1007.79 1430.56C1008.45 1422.63 1009.76 1405.18 1011.72 1378.21C1012.69 1364.88 994.096 1362.99 992.945 1377.61C991.674 1393.88 990.437 1410.57 989.234 1427.69C989.228 1427.78 989.202 1427.86 989.16 1427.94C989.117 1428.02 989.058 1428.09 988.987 1428.15C988.916 1428.2 988.834 1428.24 988.746 1428.26C988.658 1428.29 988.567 1428.29 988.478 1428.27L965.218 1423.92C965.129 1423.9 965.046 1423.87 964.974 1423.81C964.903 1423.75 964.847 1423.68 964.81 1423.6C964.773 1423.51 964.757 1423.42 964.764 1423.33C964.77 1423.24 964.798 1423.15 964.846 1423.07L965.918 1421.37C966.467 1420.49 966.803 1419.5 966.899 1418.47C967.328 1415.47 967.463 1411.42 968.061 1407.75C969.358 1399.79 973.476 1384.99 974.31 1372.41C974.683 1366.95 973.205 1362.91 968.343 1360.95C962.951 1358.77 956.555 1362.51 955.969 1368.26C954.856 1379.33 953.231 1388.82 951.095 1396.74C950.516 1398.9 949.971 1401.67 949.46 1405.03C948.67 1410.3 947.734 1415.47 949.009 1420.21Z" fill="#C6C6C6"/>
<path d="M1327.44 1243.92C1326.72 1240.83 1324.87 1238.53 1321.92 1237.01C1317.83 1234.92 1304.23 1227.94 1281.12 1216.08C1274.65 1212.76 1266.91 1215.25 1266.31 1223.13C1265.88 1228.56 1269.31 1231.15 1274.27 1233.7C1290.23 1241.89 1302.04 1247.96 1309.68 1251.88C1314.69 1254.45 1317.97 1256.35 1322.8 1253.83C1322.84 1253.8 1322.89 1253.79 1322.94 1253.8C1322.99 1253.8 1323.04 1253.82 1323.08 1253.86C1323.11 1253.89 1323.14 1253.94 1323.14 1253.99C1323.15 1254.04 1323.14 1254.09 1323.11 1254.14C1314.62 1271.67 1305.61 1288.62 1294.72 1304.86C1289.06 1313.32 1281.81 1322.5 1272.97 1332.4C1263.68 1342.81 1255.67 1351.35 1248.92 1358.02C1248.88 1358.06 1248.83 1358.09 1248.77 1358.1C1248.72 1358.11 1248.66 1358.1 1248.6 1358.08C1248.55 1358.06 1248.5 1358.02 1248.47 1357.97C1248.44 1357.92 1248.42 1357.86 1248.41 1357.8C1248.38 1355.96 1247.74 1354.24 1246.47 1352.64C1238.3 1342.33 1226.41 1327.75 1210.82 1308.88C1208.72 1306.34 1206.63 1303.86 1203.59 1303.44C1198.95 1302.81 1195.59 1304.42 1193.5 1308.26C1190.84 1313.17 1193.3 1317.1 1196.76 1321.33C1216.52 1345.47 1227.78 1359.28 1230.56 1362.79C1232.51 1365.24 1234.95 1366.88 1237.89 1367.7C1237.94 1367.71 1237.98 1367.73 1238.01 1367.77C1238.05 1367.8 1238.07 1367.85 1238.08 1367.89C1238.09 1367.94 1238.09 1367.99 1238.08 1368.03C1238.06 1368.08 1238.04 1368.12 1238 1368.15C1233.58 1372.08 1228.91 1376.02 1224 1379.96C1210.11 1391.14 1194.69 1400.28 1177.75 1407.37C1177.73 1407.38 1177.71 1407.38 1177.68 1407.38C1177.66 1407.39 1177.64 1407.38 1177.61 1407.37C1177.59 1407.36 1177.57 1407.35 1177.56 1407.34C1177.54 1407.32 1177.53 1407.3 1177.52 1407.28C1160.68 1371.15 1151.66 1351.81 1150.47 1349.26C1144.55 1336.62 1127.74 1344.86 1133.2 1356.66C1143.27 1378.43 1152.26 1397.69 1160.15 1414.43C1160.18 1414.51 1160.2 1414.59 1160.21 1414.68C1160.21 1414.77 1160.19 1414.85 1160.16 1414.93C1160.13 1415.01 1160.08 1415.09 1160.02 1415.15C1159.96 1415.21 1159.89 1415.26 1159.81 1415.29C1151.78 1418.45 1143.67 1421.03 1135.45 1423C1135.4 1423.02 1135.34 1423.02 1135.29 1423.01C1135.23 1423 1135.18 1422.98 1135.13 1422.94C1135.08 1422.91 1135.04 1422.87 1135.01 1422.82C1134.98 1422.78 1134.96 1422.72 1134.95 1422.66C1130.72 1398.82 1127.93 1383.06 1126.56 1375.39C1125.79 1371.01 1124.46 1367.24 1120.39 1365.64C1114.92 1363.5 1109.26 1366.25 1107.77 1371.82C1107.37 1373.31 1107.49 1375.82 1108.13 1379.38C1110.93 1395.03 1113.71 1410.59 1116.46 1426.07C1116.47 1426.16 1116.47 1426.25 1116.45 1426.34C1116.43 1426.43 1116.39 1426.52 1116.34 1426.59C1116.29 1426.67 1116.22 1426.73 1116.14 1426.78C1116.06 1426.83 1115.97 1426.86 1115.88 1426.87L1091.18 1430.43C1091.09 1430.44 1091 1430.43 1090.92 1430.41C1090.83 1430.39 1090.76 1430.35 1090.69 1430.29C1090.62 1430.24 1090.56 1430.18 1090.52 1430.1C1090.48 1430.03 1090.45 1429.95 1090.45 1429.86C1089.66 1423.17 1087.58 1404.57 1084.21 1374.07C1083.78 1370.22 1082.62 1366.68 1079.31 1364.9C1073.83 1361.93 1067.38 1364.32 1065.67 1370.35C1065.24 1371.87 1065.23 1374.29 1065.62 1377.61C1066.33 1383.55 1068.32 1401.28 1071.57 1430.79C1071.58 1430.86 1071.58 1430.94 1071.55 1431.02C1071.53 1431.09 1071.49 1431.16 1071.44 1431.22C1071.39 1431.29 1071.32 1431.33 1071.25 1431.37C1071.18 1431.4 1071.1 1431.43 1071.02 1431.43L1043.71 1432.53C1043.63 1432.54 1043.55 1432.53 1043.48 1432.5C1043.4 1432.47 1043.34 1432.43 1043.28 1432.37C1043.22 1432.32 1043.18 1432.25 1043.15 1432.18C1043.11 1432.11 1043.1 1432.03 1043.1 1431.95L1044.23 1355.32C1044.23 1355.19 1044.28 1355.07 1044.37 1354.98C1044.46 1354.88 1044.58 1354.83 1044.7 1354.82C1052.94 1354.31 1061.91 1352.97 1071.63 1350.82C1125.74 1338.84 1175.22 1311 1213.89 1271.7C1230.87 1254.43 1245.22 1236.13 1258.8 1216.46C1274 1194.44 1287.95 1166.62 1293.95 1140.26C1295.96 1131.41 1297.66 1122.21 1299.05 1112.67C1299.09 1112.43 1299.21 1112.22 1299.4 1112.07C1299.59 1111.92 1299.84 1111.85 1300.08 1111.88L1365.68 1119.64C1365.79 1119.66 1365.9 1119.69 1366 1119.75C1366.09 1119.81 1366.17 1119.89 1366.23 1119.98C1366.3 1120.07 1366.34 1120.17 1366.36 1120.28C1366.38 1120.39 1366.38 1120.5 1366.35 1120.61L1359.06 1150.15C1359.04 1150.23 1359.01 1150.3 1358.95 1150.36C1358.9 1150.42 1358.84 1150.46 1358.76 1150.49C1358.69 1150.52 1358.61 1150.52 1358.54 1150.51C1358.46 1150.5 1358.39 1150.47 1358.33 1150.43C1356.31 1148.93 1354.88 1148.09 1354.03 1147.92C1342.09 1145.49 1327.94 1142.64 1311.6 1139.36C1297.36 1136.51 1294.08 1154.88 1306.47 1157.44C1330.96 1162.5 1345.37 1165.39 1349.7 1166.11C1350.99 1166.32 1352.47 1166.29 1354.12 1166.01C1354.2 1166 1354.27 1166.01 1354.34 1166.03C1354.42 1166.06 1354.48 1166.1 1354.53 1166.16C1354.58 1166.22 1354.61 1166.29 1354.63 1166.36C1354.64 1166.44 1354.64 1166.52 1354.62 1166.59L1345.84 1195.07C1345.82 1195.14 1345.78 1195.2 1345.73 1195.25C1345.68 1195.3 1345.61 1195.34 1345.54 1195.35C1345.47 1195.37 1345.39 1195.37 1345.32 1195.34C1345.25 1195.32 1345.18 1195.28 1345.13 1195.23C1343.68 1193.7 1340.8 1192.17 1336.49 1190.62C1318.35 1184.11 1306.3 1179.8 1300.36 1177.67C1297.28 1176.56 1294.63 1176.52 1292.42 1177.55C1286.16 1180.45 1284.57 1188.23 1289.76 1192.99C1290.78 1193.93 1292.9 1194.97 1296.12 1196.12C1306.32 1199.77 1318.93 1204.31 1333.96 1209.75C1335.91 1210.46 1337.96 1210.56 1340.1 1210.08C1340.16 1210.06 1340.23 1210.07 1340.29 1210.09C1340.35 1210.11 1340.41 1210.14 1340.45 1210.19C1340.49 1210.24 1340.52 1210.3 1340.53 1210.36C1340.55 1210.42 1340.54 1210.49 1340.52 1210.55L1327.93 1243.95C1327.91 1244 1327.88 1244.05 1327.84 1244.08C1327.79 1244.1 1327.74 1244.12 1327.68 1244.12C1327.63 1244.11 1327.58 1244.09 1327.53 1244.05C1327.49 1244.02 1327.46 1243.97 1327.44 1243.92ZM1299.01 1287.45C1300.4 1285.46 1300.94 1283 1300.52 1280.61C1300.09 1278.22 1298.73 1276.1 1296.74 1274.71L1260.22 1249.23C1258.23 1247.84 1255.77 1247.3 1253.38 1247.73C1250.99 1248.15 1248.87 1249.51 1247.48 1251.5L1247.22 1251.87C1245.84 1253.86 1245.29 1256.32 1245.72 1258.71C1246.15 1261.1 1247.5 1263.22 1249.49 1264.61L1286.02 1290.09C1288.01 1291.47 1290.47 1292.02 1292.86 1291.59C1295.25 1291.16 1297.37 1289.81 1298.76 1287.82L1299.01 1287.45ZM1236.31 1281.45C1234.62 1279.69 1232.3 1278.68 1229.86 1278.63C1227.43 1278.59 1225.07 1279.51 1223.31 1281.2L1223.04 1281.47C1221.28 1283.16 1220.27 1285.48 1220.22 1287.91C1220.17 1290.35 1221.1 1292.71 1222.79 1294.46L1258.74 1331.82C1260.43 1333.58 1262.75 1334.59 1265.18 1334.64C1267.62 1334.68 1269.98 1333.76 1271.73 1332.07L1272.01 1331.8C1273.77 1330.11 1274.78 1327.79 1274.83 1325.36C1274.87 1322.92 1273.95 1320.56 1272.26 1318.81L1236.31 1281.45ZM1184.57 1331.62C1184 1330.56 1183.23 1329.62 1182.29 1328.86C1181.36 1328.1 1180.28 1327.53 1179.13 1327.18C1177.98 1326.84 1176.77 1326.72 1175.57 1326.84C1174.37 1326.96 1173.21 1327.32 1172.15 1327.89L1171.77 1328.09C1169.63 1329.25 1168.03 1331.2 1167.33 1333.53C1166.64 1335.86 1166.89 1338.38 1168.04 1340.52L1192.66 1386.24C1193.24 1387.3 1194.01 1388.24 1194.94 1389C1195.88 1389.76 1196.95 1390.33 1198.1 1390.68C1199.26 1391.03 1200.47 1391.14 1201.67 1391.02C1202.86 1390.9 1204.03 1390.54 1205.09 1389.97L1205.47 1389.77C1207.61 1388.61 1209.2 1386.66 1209.9 1384.33C1210.6 1382 1210.35 1379.49 1209.19 1377.34L1184.57 1331.62Z" fill="#C6C6C6"/>
<path d="M1730.14 2000H1447.97C1445.39 1856.28 1443.07 1711.86 1439.12 1568.88C1439.1 1568.23 1439.34 1567.61 1439.77 1567.15L1648.54 1343.68C1648.56 1343.66 1648.58 1343.64 1648.61 1343.63C1648.64 1343.62 1648.67 1343.62 1648.7 1343.63C1648.73 1343.63 1648.75 1343.65 1648.78 1343.66C1648.8 1343.68 1648.82 1343.71 1648.83 1343.73C1657.03 1365.25 1663.53 1385.77 1668.33 1405.3C1671.88 1419.72 1676.33 1440.8 1681.67 1468.54C1686.75 1494.94 1691.45 1525.16 1695.77 1559.2C1701.63 1605.35 1705.59 1637.22 1707.63 1654.81C1710.71 1681.29 1713.79 1724.92 1716.06 1749.96C1718.62 1778.43 1722.84 1817.35 1724.88 1851.04C1727.5 1894.02 1729.34 1932.21 1730.41 1965.6C1730.73 1975.56 1730.64 1987.03 1730.14 2000Z" fill="#C6C6C6"/>
<path d="M574.166 2000H283.506C284.059 1953.53 284.082 1921.4 282.672 1880.88C282.371 1872.32 281.671 1858.48 280.573 1839.37C279.009 1812.07 278.167 1785.22 278.047 1758.8C277.923 1732.41 276.366 1697.4 276.298 1675.69C276.208 1649.33 276.787 1621.69 278.035 1592.77C279.118 1567.79 282.423 1540.35 287.951 1510.46C293.335 1481.36 297.411 1461 300.179 1449.38C305.886 1425.34 312.888 1402 321.183 1379.34C321.196 1379.3 321.218 1379.27 321.246 1379.24C321.274 1379.22 321.308 1379.2 321.345 1379.18C321.382 1379.17 321.42 1379.17 321.459 1379.17C321.497 1379.18 321.534 1379.19 321.566 1379.21C443.018 1457.72 521.916 1508.73 558.261 1532.27C563.044 1535.37 565.909 1537.69 570.376 1537.65C570.425 1537.65 570.473 1537.66 570.518 1537.67C570.564 1537.69 570.605 1537.72 570.639 1537.75C570.674 1537.79 570.701 1537.83 570.72 1537.88C570.739 1537.92 570.748 1537.97 570.748 1538.02C570.658 1548.63 570.628 1557.67 570.658 1565.15C571.079 1690.43 572.173 1833.03 573.941 1992.95C573.978 1996.51 574.053 1998.86 574.166 2000Z" fill="#C6C6C6"/>
<path d="M1100.54 1515.71C1108.85 1515.71 1115.59 1508.98 1115.59 1500.67C1115.59 1492.35 1108.85 1485.62 1100.54 1485.62C1092.23 1485.62 1085.49 1492.35 1085.49 1500.67C1085.49 1508.98 1092.23 1515.71 1100.54 1515.71Z" fill="#C6C6C6"/>
<path d="M1097.73 1729.16C1105.28 1728.81 1111.12 1722.48 1110.78 1715C1110.44 1707.53 1104.05 1701.75 1096.5 1702.09C1088.95 1702.43 1083.1 1708.77 1083.44 1716.24C1083.78 1723.72 1090.18 1729.5 1097.73 1729.16Z" fill="#C6C6C6"/>
<path d="M1100.17 1919.61C1106.86 1917.41 1110.53 1910.27 1108.36 1903.67C1106.19 1897.06 1099 1893.49 1092.31 1895.69C1085.61 1897.9 1081.95 1905.03 1084.12 1911.64C1086.29 1918.24 1093.48 1921.81 1100.17 1919.61Z" fill="#C6C6C6"/>
<path d="M1744.85 2000H1730.14C1730.64 1987.02 1730.73 1975.56 1730.41 1965.59C1729.34 1932.2 1727.5 1894.02 1724.88 1851.04C1722.84 1817.35 1718.62 1778.43 1716.06 1749.96C1713.8 1724.91 1710.72 1681.28 1707.64 1654.81C1705.59 1637.22 1701.63 1605.35 1695.77 1559.2C1691.45 1525.16 1686.75 1494.94 1681.67 1468.54C1676.33 1440.79 1671.88 1419.71 1668.34 1405.3C1663.53 1385.77 1657.03 1365.25 1648.83 1343.73C1648.82 1343.7 1648.8 1343.68 1648.78 1343.66C1648.76 1343.64 1648.73 1343.63 1648.7 1343.62C1648.67 1343.62 1648.64 1343.62 1648.61 1343.63C1648.58 1343.64 1648.56 1343.65 1648.54 1343.67L1439.77 1567.15C1439.34 1567.61 1439.11 1568.23 1439.12 1568.87C1443.07 1711.85 1445.39 1856.27 1447.97 2000H1430.2C1428.98 1930.62 1427.78 1861.25 1426.59 1791.87C1425.47 1726.32 1424.71 1649.45 1424.33 1561.26C1424.32 1558.03 1424.8 1556 1426.88 1553.78C1510.53 1464.26 1579.54 1390.39 1633.91 1332.16C1634.52 1331.49 1636.74 1329.18 1640.59 1325.2C1640.92 1324.85 1641.14 1324.42 1641.23 1323.95C1641.31 1323.48 1641.26 1322.99 1641.07 1322.56C1629.44 1295.25 1616.59 1269.14 1599.93 1244.64C1590.64 1230.98 1578.89 1216.8 1564.7 1202.09C1544.36 1181.02 1521.35 1164.66 1495.66 1153.01C1470.81 1141.74 1445.17 1133.55 1418.74 1128.45C1404.82 1125.76 1393.69 1123.67 1385.37 1122.18C1385.16 1122.15 1384.94 1122.19 1384.76 1122.31C1384.58 1122.43 1384.46 1122.62 1384.41 1122.83C1376.81 1159.85 1365.64 1196.5 1352.51 1231.43C1347.24 1245.44 1342.19 1257.36 1337.34 1267.19C1324.36 1293.53 1309.94 1318.38 1291.54 1339.21C1281.21 1350.9 1274.48 1358.37 1271.37 1361.61C1251.72 1382.08 1228.62 1402.29 1204.01 1415.23C1179.99 1427.86 1154.69 1438.5 1127.74 1443.67C1122.95 1444.6 1116.49 1445.21 1110.76 1446.34C1107.75 1446.92 1103.51 1447.5 1098.03 1448.06C1079.99 1449.91 1065.31 1450.09 1043.45 1451.05C1043.23 1451.06 1043.02 1451.15 1042.87 1451.31C1042.72 1451.47 1042.63 1451.69 1042.63 1451.91L1034.52 2000H1016.2L1024.21 1451.92C1024.21 1451.64 1024.11 1451.36 1023.91 1451.15C1023.72 1450.95 1023.45 1450.82 1023.17 1450.8C995.713 1449.26 970.298 1444.1 941.872 1437.8C908.437 1430.37 879.909 1420.31 848.651 1405.43C822.609 1393.03 799.232 1378.36 778.521 1361.41C763.913 1349.45 745.617 1334.1 732.272 1319.33C714.314 1299.47 697.533 1277.81 681.928 1254.35C672.4 1240 664.312 1224.49 657.664 1207.8C648.474 1184.7 641.334 1162.52 636.243 1141.26C634.904 1135.67 633.964 1130.6 633.423 1126.04C633.403 1125.87 633.347 1125.7 633.259 1125.55C633.171 1125.4 633.053 1125.27 632.913 1125.16C632.772 1125.06 632.612 1124.99 632.441 1124.95C632.271 1124.91 632.094 1124.91 631.922 1124.94C614.923 1128.16 602.661 1131.29 583.744 1136.47C554.28 1144.52 525.865 1155.02 498.499 1167.97C483.015 1175.3 468.204 1183.83 454.066 1193.54C436.435 1205.65 420.856 1220.81 405.628 1235.86C397.702 1243.69 390.452 1251.85 383.88 1260.36C378.16 1267.76 368.471 1280.36 362.402 1290.59C349.377 1312.51 337.969 1335.77 328.177 1360.37C328.082 1360.61 328.073 1360.88 328.151 1361.12C328.229 1361.37 328.39 1361.58 328.606 1361.72L573.378 1519.99C573.843 1520.29 574.274 1520.63 574.664 1521.01C576.641 1522.96 578.83 1524.44 581.229 1525.47C581.928 1525.76 582.551 1526.21 583.051 1526.79C583.552 1527.36 583.916 1528.04 584.116 1528.77C584.936 1531.76 585.376 1534.86 585.436 1538.07C585.654 1548.57 585.846 1559 586.012 1569.37C588.335 1712.91 590.118 1856.45 591.358 2000H574.167C574.054 1998.85 573.979 1996.5 573.942 1992.95C572.174 1833.02 571.08 1690.42 570.659 1565.14C570.629 1557.67 570.659 1548.62 570.749 1538.01C570.749 1537.96 570.74 1537.91 570.721 1537.87C570.702 1537.82 570.675 1537.78 570.64 1537.75C570.606 1537.71 570.565 1537.69 570.52 1537.67C570.474 1537.65 570.426 1537.64 570.377 1537.64C565.91 1537.68 563.045 1535.36 558.262 1532.26C521.917 1508.73 443.019 1457.71 321.567 1379.21C321.535 1379.19 321.498 1379.17 321.46 1379.17C321.421 1379.16 321.383 1379.17 321.346 1379.18C321.309 1379.19 321.275 1379.21 321.247 1379.24C321.219 1379.26 321.198 1379.3 321.184 1379.33C312.889 1401.99 305.887 1425.34 300.18 1449.37C297.412 1461 293.336 1481.36 287.952 1510.45C282.424 1540.35 279.119 1567.78 278.036 1592.77C276.788 1621.68 276.209 1649.32 276.299 1675.69C276.367 1697.39 277.924 1732.41 278.048 1758.79C278.168 1785.21 279.01 1812.07 280.574 1839.36C281.672 1858.47 282.372 1872.31 282.673 1880.88C284.083 1921.4 284.06 1953.52 283.507 2000H265.955C265.76 1985.19 265.748 1970.34 265.921 1955.44C266.23 1927.86 265.876 1903.14 264.861 1881.28C264.312 1869.48 263.27 1849.27 261.736 1820.65C260.729 1801.75 260.176 1777.94 260.078 1749.22C260.022 1733.25 259.446 1717.36 258.984 1699.85C257.841 1656.32 258.691 1613.39 261.533 1571.06C261.616 1569.81 262.315 1563.3 263.631 1551.51C264.421 1544.49 265.305 1538 266.282 1532.03C272.84 1492.3 279.352 1459.57 285.82 1433.86C292.716 1406.43 302.266 1378.01 314.472 1348.61C329.678 1312 347.907 1280.5 371.528 1249.7C383.184 1234.5 394.915 1221.41 406.722 1210.44C408.873 1208.44 414.558 1203.4 423.778 1195.32C440.315 1180.8 459.379 1168.83 478.172 1158.94C499.146 1147.89 520.943 1138.49 543.564 1130.72C569.181 1121.95 595.972 1113.42 622.695 1108.61C655.423 1102.74 676.754 1099.26 686.688 1098.16C729.993 1093.41 756.942 1091.07 797.799 1087.13C810.802 1085.86 828.196 1084.83 849.982 1084.03C888.794 1082.6 937.675 1082.7 996.626 1084.35C1039.02 1085.54 1110.67 1084.82 1160.85 1086.91C1196.59 1088.4 1222.6 1089.67 1238.87 1090.71C1262.71 1092.25 1275.53 1092.68 1294.83 1094.76C1332.59 1098.87 1370.94 1102.72 1407.47 1108.41C1451.11 1115.22 1495.14 1129.74 1532.95 1153.12C1546.8 1161.67 1560.56 1172.66 1574.23 1186.07C1597.54 1208.92 1617.3 1235.13 1633.5 1264.7C1644.16 1284.16 1653.62 1304.67 1661.89 1326.25C1675.48 1361.65 1685.02 1392.73 1692.18 1428.24C1699.45 1464.2 1704.83 1494.52 1708.35 1519.2C1712.08 1545.48 1717.28 1586.91 1723.92 1643.48C1727.17 1671.09 1729.9 1709.68 1731.43 1729.62C1733.82 1760.99 1738.91 1808.3 1740.66 1838.12C1741.79 1856.9 1743.24 1891.03 1745.02 1940.49C1745.82 1962.75 1745.77 1982.58 1744.85 2000ZM741.06 1108.45C740.961 1108.46 740.867 1108.49 740.781 1108.54C740.695 1108.59 740.62 1108.65 740.56 1108.73C740.501 1108.81 740.457 1108.9 740.432 1109C740.408 1109.09 740.402 1109.19 740.417 1109.29C741.308 1115.03 743.609 1123.3 745.651 1128.69C752.502 1146.71 760.142 1163.2 768.572 1178.15C771.836 1183.94 776.314 1190.55 782.007 1197.97C799.687 1221.01 819.492 1240.97 841.42 1257.84C851.159 1265.34 859.935 1271.79 867.749 1277.2C895.025 1296.08 925.662 1310.72 956.153 1321.89C970.885 1327.28 982.65 1330.25 998.036 1333.62C1004.5 1335.04 1010.16 1335.94 1015.02 1336.3C1033.83 1337.69 1051.97 1336.36 1069.45 1332.3C1107.15 1323.58 1141.29 1307.51 1171.87 1284.08C1187.85 1271.84 1202.44 1257.97 1215.65 1242.46C1244.27 1208.83 1270.19 1170.27 1277.98 1126.02C1279.43 1117.79 1280.35 1112.74 1280.74 1110.86C1280.78 1110.71 1280.78 1110.55 1280.74 1110.39C1280.71 1110.24 1280.65 1110.1 1280.55 1109.97C1280.46 1109.84 1280.34 1109.74 1280.21 1109.66C1280.07 1109.58 1279.92 1109.53 1279.76 1109.52C1275.49 1109.1 1271.07 1108.75 1266.5 1108.48C1236.6 1106.67 1202.53 1105.08 1164.29 1103.7C1140.88 1102.85 1118.6 1102.4 1097.43 1102.33C1074.3 1102.25 1021.71 1102.18 984.117 1100.96C937.123 1099.42 888.595 1099.55 843.079 1101.28C830.452 1101.76 813.438 1102.83 792.035 1104.47C758.826 1107.04 741.834 1108.36 741.06 1108.45ZM949.012 1420.2C947.737 1415.46 948.674 1410.3 949.463 1405.03C949.975 1401.66 950.52 1398.89 951.099 1396.74C953.235 1388.82 954.859 1379.32 955.972 1368.25C956.559 1362.5 962.955 1358.77 968.347 1360.94C973.208 1362.91 974.686 1366.95 974.314 1372.4C973.479 1384.98 969.362 1399.78 968.065 1407.75C967.467 1411.41 967.331 1415.46 966.903 1418.46C966.806 1419.49 966.47 1420.49 965.921 1421.36L964.85 1423.06C964.802 1423.14 964.773 1423.23 964.767 1423.32C964.761 1423.42 964.777 1423.51 964.814 1423.59C964.85 1423.67 964.907 1423.75 964.978 1423.8C965.049 1423.86 965.133 1423.9 965.222 1423.91L988.482 1428.27C988.571 1428.28 988.662 1428.28 988.75 1428.26C988.837 1428.24 988.919 1428.2 988.991 1428.14C989.062 1428.09 989.121 1428.02 989.163 1427.94C989.206 1427.86 989.231 1427.77 989.238 1427.68C990.441 1410.56 991.678 1393.87 992.949 1377.61C994.1 1362.99 1012.69 1364.87 1011.72 1378.2C1009.76 1405.17 1008.46 1422.62 1007.79 1430.55C1007.78 1430.69 1007.83 1430.82 1007.92 1430.93C1008.01 1431.03 1008.13 1431.1 1008.27 1431.11L1023.65 1432.34C1023.74 1432.35 1023.82 1432.34 1023.9 1432.31C1023.98 1432.28 1024.05 1432.24 1024.11 1432.19C1024.17 1432.13 1024.22 1432.06 1024.25 1431.99C1024.29 1431.91 1024.31 1431.83 1024.31 1431.75L1025.42 1355.85C1025.43 1355.72 1025.38 1355.59 1025.29 1355.5C1025.2 1355.41 1025.08 1355.35 1024.95 1355.35C1003.48 1354.48 981.037 1352.5 962.176 1344.34C956.687 1341.97 950.986 1339.68 945.075 1337.46C916.863 1326.86 887.862 1313.08 862.763 1296.15C836.705 1278.58 811.81 1259.56 790.569 1236.57C775.453 1220.23 762.041 1204.1 751.877 1186.35C748.426 1180.31 743.771 1170.96 737.912 1158.3C730.422 1142.13 725.12 1127.71 722.165 1111.73C722.132 1111.55 722.032 1111.38 721.885 1111.27C721.739 1111.16 721.557 1111.11 721.375 1111.13C698.04 1113.45 674.863 1116.81 651.843 1121.23C651.73 1121.25 651.621 1121.29 651.525 1121.36C651.429 1121.42 651.347 1121.5 651.283 1121.6C651.22 1121.7 651.177 1121.81 651.157 1121.92C651.137 1122.03 651.14 1122.15 651.167 1122.26L656.615 1146.95C656.658 1147.14 656.777 1147.31 656.946 1147.42C657.115 1147.53 657.32 1147.57 657.517 1147.53C681.041 1142.73 697.743 1139.26 707.625 1137.12C712.806 1136 716.544 1136.92 718.837 1139.9C723.361 1145.75 720.507 1153.5 713.389 1155.08C703.545 1157.26 686.7 1160.78 662.853 1165.64C662.776 1165.65 662.703 1165.68 662.638 1165.73C662.574 1165.77 662.521 1165.83 662.481 1165.9C662.441 1165.97 662.417 1166.04 662.409 1166.12C662.401 1166.2 662.41 1166.27 662.436 1166.35L668.516 1184.31C668.547 1184.4 668.596 1184.48 668.661 1184.55C668.726 1184.62 668.805 1184.68 668.893 1184.72C668.981 1184.76 669.076 1184.78 669.172 1184.78C669.268 1184.78 669.364 1184.76 669.452 1184.72C675.025 1182.34 690.926 1175.67 717.157 1164.71C720.375 1163.37 723.082 1163.05 725.278 1163.76C733.806 1166.55 733.851 1178.01 725.91 1181.38C718.6 1184.49 702.06 1191.43 676.288 1202.21C676.153 1202.26 676.032 1202.35 675.93 1202.45C675.829 1202.56 675.75 1202.68 675.698 1202.82C675.647 1202.95 675.623 1203.1 675.63 1203.24C675.636 1203.39 675.672 1203.53 675.735 1203.66L686.914 1227.05C686.967 1227.16 687.044 1227.25 687.141 1227.33C687.237 1227.4 687.349 1227.45 687.469 1227.48C687.589 1227.5 687.712 1227.49 687.829 1227.46C687.946 1227.43 688.054 1227.37 688.144 1227.28C694.002 1221.82 698.976 1217.44 703.067 1214.16C710.23 1208.42 715.803 1205.03 725.087 1198.88C726.576 1197.89 730.817 1194.33 737.811 1188.2C741.996 1184.54 748.787 1185.49 751.776 1190.39C756.299 1197.77 749.599 1203.09 744.59 1207.36C733.942 1216.44 720.653 1223.08 710.614 1232.34C705.275 1237.26 700.924 1241.04 697.563 1243.66C697.45 1243.75 697.376 1243.88 697.355 1244.02C697.334 1244.16 697.368 1244.3 697.45 1244.42L708.403 1260.21C708.512 1260.37 708.668 1260.49 708.848 1260.55C709.028 1260.61 709.224 1260.62 709.407 1260.56C710.43 1260.24 711.671 1259.46 713.129 1258.24C720.529 1252.01 726.44 1246.52 730.862 1241.77C737.156 1235.01 744.782 1228.08 750.208 1223.14C754.344 1219.38 758.326 1218.45 762.154 1220.38C766.339 1222.48 768.189 1226.69 767.196 1231.14C766.82 1232.84 764.872 1235.3 761.353 1238.52C753.897 1245.33 750.817 1248.04 744.861 1254.36C739.319 1260.22 732.532 1266.53 724.5 1273.28C723.41 1274.19 722.233 1275.09 720.969 1275.98C720.89 1276.03 720.823 1276.1 720.773 1276.18C720.722 1276.27 720.689 1276.36 720.675 1276.45C720.661 1276.54 720.667 1276.64 720.693 1276.73C720.718 1276.83 720.762 1276.91 720.823 1276.98L739.39 1299.67C739.449 1299.74 739.525 1299.8 739.61 1299.84C739.695 1299.89 739.789 1299.91 739.884 1299.91C739.979 1299.91 740.073 1299.89 740.159 1299.85C740.245 1299.81 740.322 1299.75 740.383 1299.68C744.699 1294.49 748.516 1289.98 751.832 1286.16C754.641 1282.91 756.57 1279.36 759.875 1275.42C766.057 1268.06 770.163 1262.02 777.675 1252.87C779.3 1250.89 781.202 1249.58 783.383 1248.94C791.9 1246.46 798.341 1257.01 793.265 1263.36C783.887 1275.1 776.502 1284.63 771.11 1291.94C769.05 1294.74 768.004 1296.15 767.974 1296.18C761.477 1303.67 756.596 1309.53 753.333 1313.76C753.244 1313.87 753.201 1314.02 753.214 1314.16C753.227 1314.31 753.293 1314.44 753.4 1314.54L771.945 1331.86C772.066 1331.98 772.21 1332.06 772.367 1332.11C772.524 1332.16 772.691 1332.18 772.855 1332.16C773.019 1332.14 773.177 1332.09 773.318 1332C773.459 1331.91 773.579 1331.8 773.671 1331.66C778.081 1325.02 785.47 1313.59 791.595 1303.19C794.175 1298.81 795.871 1296.16 796.683 1295.22C800.473 1290.88 803.921 1285.75 807.027 1279.85C809.554 1275.06 815.814 1273.36 820.507 1276.52C823.876 1278.79 825.128 1282.32 824.263 1287.11C824.233 1287.28 824.176 1287.44 824.094 1287.59L818.138 1298.61C818.063 1298.75 817.968 1298.88 817.856 1299C813.915 1303.35 810.554 1307.94 807.771 1312.77C802.289 1322.28 797.901 1328.76 790.715 1340.05C789.941 1341.28 788.914 1342.66 787.636 1344.19C787.549 1344.3 787.507 1344.44 787.52 1344.58C787.533 1344.71 787.599 1344.84 787.704 1344.93C795.923 1351.84 804.402 1358.21 813.141 1364.02C813.201 1364.06 813.268 1364.09 813.338 1364.1C813.409 1364.11 813.48 1364.11 813.548 1364.09C813.616 1364.07 813.679 1364.04 813.734 1363.99C813.788 1363.95 813.832 1363.89 813.863 1363.83C827.707 1335.1 837.089 1315.71 842.007 1305.66C846.35 1296.79 859.65 1299.53 859.853 1309.42C859.89 1311.03 858.935 1313.83 856.987 1317.84C846.88 1338.69 837.83 1357.38 829.836 1373.91C829.74 1374.11 829.727 1374.34 829.798 1374.55C829.87 1374.76 830.021 1374.94 830.219 1375.04L854.946 1388.03C855.015 1388.06 855.09 1388.08 855.168 1388.09C855.246 1388.09 855.323 1388.08 855.396 1388.06C855.469 1388.03 855.536 1387.99 855.593 1387.94C855.649 1387.88 855.694 1387.82 855.724 1387.75C864.846 1365.95 872.257 1348.34 877.957 1334.94C879.251 1331.9 880.398 1329.9 881.398 1328.93C886.711 1323.8 894.336 1325.96 896.841 1332.66C897.89 1335.46 896.965 1338.23 895.769 1341.07C889.317 1356.33 882.323 1372.93 874.788 1390.87C874.382 1391.84 873.607 1393.34 872.464 1395.37C872.402 1395.48 872.365 1395.6 872.354 1395.73C872.344 1395.85 872.361 1395.98 872.404 1396.1C872.447 1396.21 872.515 1396.32 872.603 1396.41C872.691 1396.5 872.798 1396.57 872.915 1396.61L900.157 1406.89C900.202 1406.91 900.25 1406.91 900.298 1406.91C900.346 1406.91 900.393 1406.89 900.435 1406.87C900.478 1406.84 900.515 1406.81 900.545 1406.77C900.575 1406.73 900.597 1406.69 900.608 1406.64C908.166 1374.24 912.449 1356.03 913.457 1352.03C914.675 1347.22 919.92 1343.63 924.985 1345.21C930.558 1346.96 932.723 1351.87 931.404 1357.53C925.011 1384.95 920.951 1402.25 919.221 1409.42C919.048 1410.14 918.751 1411.01 918.33 1412.03C918.286 1412.14 918.266 1412.25 918.27 1412.37C918.275 1412.49 918.305 1412.6 918.357 1412.7C918.41 1412.8 918.484 1412.89 918.574 1412.97C918.665 1413.04 918.77 1413.09 918.882 1413.12L948.73 1420.48C948.769 1420.49 948.809 1420.49 948.847 1420.48C948.885 1420.47 948.92 1420.45 948.948 1420.42C948.976 1420.39 948.997 1420.35 949.008 1420.32C949.019 1420.28 949.021 1420.24 949.012 1420.2ZM1327.93 1243.94L1340.52 1210.54C1340.54 1210.48 1340.54 1210.42 1340.53 1210.35C1340.52 1210.29 1340.49 1210.23 1340.45 1210.18C1340.41 1210.14 1340.35 1210.1 1340.29 1210.08C1340.23 1210.06 1340.16 1210.06 1340.1 1210.07C1337.96 1210.56 1335.91 1210.45 1333.96 1209.74C1318.93 1204.31 1306.32 1199.76 1296.12 1196.12C1292.9 1194.97 1290.78 1193.92 1289.76 1192.98C1284.57 1188.22 1286.16 1180.45 1292.42 1177.55C1294.63 1176.52 1297.28 1176.56 1300.36 1177.66C1306.3 1179.79 1318.34 1184.11 1336.49 1190.61C1340.8 1192.16 1343.68 1193.7 1345.13 1195.22C1345.18 1195.28 1345.25 1195.32 1345.32 1195.34C1345.39 1195.36 1345.47 1195.36 1345.54 1195.35C1345.61 1195.33 1345.68 1195.3 1345.73 1195.25C1345.78 1195.2 1345.82 1195.14 1345.84 1195.07L1354.62 1166.58C1354.64 1166.51 1354.64 1166.43 1354.63 1166.36C1354.61 1166.28 1354.58 1166.21 1354.53 1166.15C1354.48 1166.1 1354.41 1166.05 1354.34 1166.03C1354.27 1166 1354.2 1166 1354.12 1166.01C1352.47 1166.29 1350.99 1166.32 1349.7 1166.1C1345.37 1165.38 1330.96 1162.5 1306.47 1157.44C1294.08 1154.88 1297.36 1136.5 1311.6 1139.35C1327.94 1142.63 1342.09 1145.49 1354.03 1147.92C1354.88 1148.09 1356.31 1148.92 1358.33 1150.42C1358.39 1150.47 1358.46 1150.5 1358.54 1150.51C1358.61 1150.52 1358.69 1150.51 1358.76 1150.48C1358.84 1150.46 1358.9 1150.41 1358.95 1150.35C1359.01 1150.3 1359.04 1150.22 1359.06 1150.15L1366.35 1120.61C1366.38 1120.5 1366.38 1120.39 1366.36 1120.28C1366.34 1120.17 1366.3 1120.06 1366.23 1119.97C1366.17 1119.88 1366.09 1119.8 1365.99 1119.75C1365.9 1119.69 1365.79 1119.65 1365.68 1119.64L1300.08 1111.87C1299.84 1111.85 1299.59 1111.92 1299.4 1112.06C1299.21 1112.21 1299.09 1112.43 1299.05 1112.66C1297.66 1122.21 1295.96 1131.4 1293.95 1140.26C1287.95 1166.62 1274 1194.44 1258.8 1216.45C1245.22 1236.13 1230.87 1254.42 1213.89 1271.69C1175.22 1310.99 1125.74 1338.83 1071.63 1350.81C1061.91 1352.97 1052.94 1354.3 1044.7 1354.82C1044.58 1354.82 1044.46 1354.88 1044.37 1354.97C1044.28 1355.06 1044.23 1355.19 1044.23 1355.32L1043.1 1431.94C1043.1 1432.02 1043.11 1432.1 1043.14 1432.17C1043.17 1432.25 1043.22 1432.31 1043.28 1432.37C1043.33 1432.42 1043.4 1432.47 1043.48 1432.49C1043.55 1432.52 1043.63 1432.53 1043.71 1432.53L1071.02 1431.42C1071.1 1431.42 1071.18 1431.4 1071.25 1431.36C1071.32 1431.33 1071.39 1431.28 1071.44 1431.22C1071.49 1431.16 1071.53 1431.09 1071.55 1431.01C1071.57 1430.94 1071.58 1430.86 1071.57 1430.78C1068.32 1401.27 1066.33 1383.55 1065.62 1377.61C1065.23 1374.28 1065.24 1371.86 1065.67 1370.34C1067.38 1364.32 1073.83 1361.93 1079.31 1364.89C1082.62 1366.67 1083.78 1370.22 1084.21 1374.06C1087.58 1404.57 1089.66 1423.16 1090.44 1429.86C1090.45 1429.94 1090.48 1430.02 1090.52 1430.1C1090.56 1430.17 1090.62 1430.24 1090.69 1430.29C1090.75 1430.34 1090.83 1430.38 1090.92 1430.4C1091 1430.43 1091.09 1430.43 1091.18 1430.42L1115.88 1426.87C1115.97 1426.85 1116.06 1426.82 1116.14 1426.77C1116.22 1426.73 1116.28 1426.66 1116.34 1426.59C1116.39 1426.51 1116.43 1426.43 1116.45 1426.34C1116.47 1426.25 1116.47 1426.16 1116.46 1426.07C1113.7 1410.59 1110.93 1395.03 1108.13 1379.38C1107.49 1375.82 1107.37 1373.3 1107.77 1371.82C1109.26 1366.25 1114.92 1363.49 1120.39 1365.64C1124.45 1367.24 1125.79 1371.01 1126.56 1375.38C1127.93 1383.05 1130.72 1398.81 1134.95 1422.66C1134.96 1422.72 1134.98 1422.77 1135.01 1422.82C1135.04 1422.87 1135.08 1422.91 1135.13 1422.94C1135.18 1422.97 1135.23 1422.99 1135.29 1423C1135.34 1423.01 1135.4 1423.01 1135.45 1423C1143.67 1421.02 1151.78 1418.45 1159.81 1415.28C1159.89 1415.25 1159.96 1415.2 1160.02 1415.14C1160.08 1415.08 1160.13 1415.01 1160.16 1414.93C1160.19 1414.85 1160.21 1414.76 1160.21 1414.67C1160.2 1414.59 1160.18 1414.5 1160.15 1414.42C1152.26 1397.68 1143.27 1378.43 1133.2 1356.66C1127.74 1344.86 1144.55 1336.61 1150.47 1349.26C1151.66 1351.81 1160.68 1371.15 1177.52 1407.27C1177.53 1407.29 1177.54 1407.31 1177.55 1407.33C1177.57 1407.35 1177.59 1407.36 1177.61 1407.37C1177.64 1407.38 1177.66 1407.38 1177.68 1407.38C1177.71 1407.38 1177.73 1407.37 1177.75 1407.36C1194.69 1400.27 1210.11 1391.13 1224 1379.95C1228.91 1376.01 1233.58 1372.07 1238 1368.14C1238.04 1368.11 1238.06 1368.07 1238.08 1368.03C1238.09 1367.98 1238.09 1367.93 1238.08 1367.89C1238.07 1367.84 1238.05 1367.8 1238.01 1367.76C1237.98 1367.73 1237.94 1367.7 1237.89 1367.69C1234.95 1366.87 1232.51 1365.23 1230.56 1362.78C1227.78 1359.28 1216.52 1345.46 1196.76 1321.33C1193.3 1317.1 1190.84 1313.16 1193.5 1308.25C1195.58 1304.41 1198.95 1302.81 1203.59 1303.44C1206.63 1303.85 1208.72 1306.34 1210.82 1308.87C1226.41 1327.74 1238.3 1342.33 1246.47 1352.63C1247.74 1354.23 1248.38 1355.95 1248.41 1357.8C1248.42 1357.86 1248.43 1357.91 1248.47 1357.96C1248.5 1358.01 1248.55 1358.05 1248.6 1358.08C1248.66 1358.1 1248.72 1358.1 1248.77 1358.09C1248.83 1358.08 1248.88 1358.05 1248.92 1358.01C1255.67 1351.35 1263.68 1342.81 1272.97 1332.39C1281.81 1322.49 1289.06 1313.31 1294.72 1304.86C1305.61 1288.61 1314.62 1271.66 1323.11 1254.13C1323.14 1254.09 1323.15 1254.04 1323.14 1253.99C1323.13 1253.94 1323.11 1253.89 1323.07 1253.85C1323.04 1253.82 1322.99 1253.8 1322.94 1253.79C1322.89 1253.79 1322.84 1253.8 1322.8 1253.83C1317.97 1256.34 1314.69 1254.45 1309.68 1251.87C1302.04 1247.95 1290.23 1241.89 1274.27 1233.69C1269.31 1231.14 1265.88 1228.56 1266.3 1223.12C1266.91 1215.25 1274.65 1212.75 1281.12 1216.07C1304.23 1227.94 1317.83 1234.92 1321.92 1237.01C1324.87 1238.53 1326.71 1240.83 1327.44 1243.91C1327.46 1243.96 1327.49 1244.01 1327.53 1244.05C1327.57 1244.08 1327.63 1244.11 1327.68 1244.11C1327.74 1244.11 1327.79 1244.1 1327.83 1244.07C1327.88 1244.04 1327.91 1244 1327.93 1243.94Z" fill="black"/>
<path d="M1296.75 1274.71L1260.22 1249.23C1256.08 1246.34 1250.38 1247.35 1247.48 1251.5L1247.23 1251.87C1244.34 1256.01 1245.35 1261.71 1249.5 1264.6L1286.02 1290.08C1290.16 1292.97 1295.87 1291.96 1298.76 1287.81L1299.02 1287.44C1301.91 1283.3 1300.89 1277.6 1296.75 1274.71Z" fill="black"/>
<path d="M1223.31 1281.2L1223.04 1281.46C1219.38 1284.98 1219.27 1290.8 1222.79 1294.46L1258.74 1331.82C1262.26 1335.48 1268.08 1335.59 1271.74 1332.07L1272.01 1331.8C1275.67 1328.28 1275.78 1322.46 1272.26 1318.8L1236.31 1281.44C1232.79 1277.79 1226.97 1277.67 1223.31 1281.2Z" fill="black"/>
<path d="M1172.15 1327.89L1171.77 1328.09C1167.31 1330.49 1165.64 1336.05 1168.04 1340.51L1192.66 1386.24C1195.07 1390.7 1200.63 1392.37 1205.09 1389.97L1205.46 1389.76C1209.92 1387.36 1211.59 1381.8 1209.19 1377.34L1184.57 1331.61C1182.17 1327.15 1176.61 1325.49 1172.15 1327.89Z" fill="black"/>
<path d="M1134.15 1500.48C1134.15 1509.42 1130.6 1517.99 1124.28 1524.31C1117.96 1530.63 1109.39 1534.18 1100.45 1534.18C1091.52 1534.18 1082.95 1530.63 1076.63 1524.31C1070.31 1517.99 1066.76 1509.42 1066.76 1500.48C1066.76 1491.55 1070.31 1482.98 1076.63 1476.66C1082.95 1470.34 1091.52 1466.79 1100.45 1466.79C1109.39 1466.79 1117.96 1470.34 1124.28 1476.66C1130.6 1482.98 1134.15 1491.55 1134.15 1500.48ZM1115.59 1500.66C1115.59 1496.67 1114 1492.85 1111.18 1490.02C1108.36 1487.2 1104.53 1485.62 1100.54 1485.62C1096.55 1485.62 1092.72 1487.2 1089.9 1490.02C1087.08 1492.85 1085.49 1496.67 1085.49 1500.66C1085.49 1504.65 1087.08 1508.48 1089.9 1511.3C1092.72 1514.13 1096.55 1515.71 1100.54 1515.71C1104.53 1515.71 1108.36 1514.13 1111.18 1511.3C1114 1508.48 1115.59 1504.65 1115.59 1500.66Z" fill="black"/>
<path d="M1129.33 1715.47C1129.33 1724.02 1125.93 1732.22 1119.89 1738.27C1113.84 1744.32 1105.64 1747.71 1097.09 1747.71C1088.54 1747.71 1080.34 1744.32 1074.29 1738.27C1068.25 1732.22 1064.85 1724.02 1064.85 1715.47C1064.85 1706.92 1068.25 1698.72 1074.29 1692.68C1080.34 1686.63 1088.54 1683.23 1097.09 1683.23C1105.64 1683.23 1113.84 1686.63 1119.89 1692.68C1125.93 1698.72 1129.33 1706.92 1129.33 1715.47ZM1110.78 1715C1110.62 1711.41 1109.02 1708.03 1106.34 1705.61C1103.67 1703.19 1100.12 1701.92 1096.5 1702.09C1094.7 1702.17 1092.94 1702.6 1091.31 1703.35C1089.69 1704.11 1088.23 1705.18 1087.01 1706.49C1085.8 1707.8 1084.86 1709.34 1084.25 1711.01C1083.64 1712.69 1083.36 1714.46 1083.44 1716.24C1083.61 1719.83 1085.2 1723.21 1087.88 1725.63C1090.56 1728.05 1094.1 1729.32 1097.73 1729.15C1099.52 1729.07 1101.28 1728.64 1102.91 1727.89C1104.54 1727.13 1106 1726.07 1107.21 1724.75C1108.43 1723.44 1109.36 1721.9 1109.98 1720.23C1110.59 1718.55 1110.86 1716.78 1110.78 1715Z" fill="black"/>
<path d="M1127.5 1907.44C1127.5 1915.76 1124.2 1923.73 1118.32 1929.61C1112.44 1935.49 1104.47 1938.79 1096.15 1938.79C1087.84 1938.79 1079.87 1935.49 1073.99 1929.61C1068.11 1923.73 1064.8 1915.76 1064.8 1907.44C1064.8 1899.13 1068.11 1891.15 1073.99 1885.28C1079.87 1879.4 1087.84 1876.09 1096.15 1876.09C1104.47 1876.09 1112.44 1879.4 1118.32 1885.28C1124.2 1891.15 1127.5 1899.13 1127.5 1907.44ZM1108.36 1903.66C1107.85 1902.09 1107.02 1900.64 1105.94 1899.39C1104.85 1898.14 1103.52 1897.11 1102.03 1896.37C1100.54 1895.63 1098.92 1895.19 1097.25 1895.07C1095.58 1894.95 1093.9 1895.16 1092.31 1895.69C1089.1 1896.74 1086.43 1899.02 1084.89 1902.01C1083.36 1905 1083.08 1908.46 1084.12 1911.63C1084.64 1913.2 1085.46 1914.65 1086.55 1915.9C1087.64 1917.15 1088.96 1918.18 1090.45 1918.92C1091.94 1919.66 1093.57 1920.1 1095.24 1920.22C1096.91 1920.34 1098.58 1920.13 1100.17 1919.6C1103.39 1918.55 1106.06 1916.27 1107.59 1913.28C1109.13 1910.29 1109.41 1906.83 1108.36 1903.66Z" fill="black"/>
</g>
<defs>
<filter id="filter0_d_3067_4" x="-4" y="0" width="2008" height="2008" filterUnits="userSpaceOnUse" color-interpolation-filters="sRGB">
<feFlood flood-opacity="0" result="BackgroundImageFix"/>
<feColorMatrix in="SourceAlpha" type="matrix" values="0 0 0 0 0 0 0 0 0 0 0 0 0 0 0 0 0 0 127 0" result="hardAlpha"/>
<feOffset dy="4"/>
<feGaussianBlur stdDeviation="2"/>
<feComposite in2="hardAlpha" operator="out"/>
<feColorMatrix type="matrix" values="0 0 0 0 0 0 0 0 0 0 0 0 0 0 0 0 0 0 0.25 0"/>
<feBlend mode="normal" in2="BackgroundImageFix" result="effect1_dropShadow_3067_4"/>
<feBlend mode="normal" in="SourceGraphic" in2="effect1_dropShadow_3067_4" result="shape"/>
</filter>
<clipPath id="clip0_3067_4">
<rect width="2000" height="2000" fill="white"/>
</clipPath>
</defs>
</svg>
