<svg width="2000" height="2008" viewBox="0 0 2000 2008" fill="none" xmlns="http://www.w3.org/2000/svg">
<g clip-path="url(#clip0_3158_698)" filter="url(#filter0_d_3158_698)">
<path d="M1206.11 1387.15C1196.97 1395.19 1187.99 1401.91 1179.17 1407.31C1148.02 1426.42 1128.06 1438.13 1104.54 1455.66C1094.4 1463.21 1087.58 1468.23 1084.08 1470.69C1069.96 1480.66 1055.1 1488.93 1039.52 1495.49C1021.44 1503.1 1001.82 1506.95 983.109 1502.29C979.492 1501.39 976.567 1500.27 974.333 1498.93C963.504 1492.44 952.506 1484.29 940.865 1474.65C920.793 1458.04 900.526 1442.32 880.064 1427.5C840.605 1398.91 812.713 1378.67 796.386 1366.78C765.366 1344.18 737.999 1322.04 714.288 1300.37C701.271 1288.48 687.588 1273.78 673.239 1256.25C657.68 1237.27 642.82 1217.25 628.659 1196.2C617.176 1179.13 610.363 1164.27 599.759 1142.16C583.662 1108.61 583.583 1071.17 598.721 1037.24C606.167 1020.56 618.135 1007.07 635.371 999.401C646.659 994.385 659.662 990.103 674.379 986.553C691.69 982.379 705.802 979.296 716.714 977.303C725.557 975.686 740.925 973.227 762.816 969.926C781.669 967.076 797.12 965.169 809.167 964.207C840.647 961.702 866.625 960.623 887.103 960.969C929.96 961.699 974.258 963.838 1020 967.388C1035.88 968.629 1052.88 970.738 1064.47 972.001C1130.73 979.206 1166.03 983.06 1170.35 983.564C1194.17 986.361 1216.35 989.862 1236.89 994.066C1282.06 1003.29 1324.56 1024.18 1353.32 1061C1360.51 1070.22 1365.55 1080.74 1369.07 1091.65C1373.19 1104.45 1377.03 1117.66 1371.95 1130.28C1370.33 1134.29 1367.86 1139.16 1364.54 1144.89C1354.79 1161.73 1342.84 1179.95 1328.69 1199.56C1327.76 1200.85 1324.71 1205.72 1319.53 1214.16C1316.79 1218.63 1313.96 1223.62 1311.06 1229.14C1302.35 1245.7 1291.47 1263.41 1283.55 1278.46C1275.07 1294.61 1267.19 1310.92 1259.25 1323.9C1244.65 1347.76 1226.94 1368.85 1206.11 1387.15ZM687.757 1099.99C681.485 1104.42 682.151 1111.73 686.708 1117.29C733.687 1174.6 826.433 1287.81 964.948 1456.92C969.9 1462.97 975.191 1461.83 981.666 1457.81C998.067 1447.65 1010.32 1441.56 1032.8 1429.66C1056.16 1417.3 1071.54 1405.03 1095.5 1386.82C1103.54 1380.72 1119.39 1369.96 1143.03 1354.54C1160.64 1343.06 1178.6 1329.25 1196.94 1313.11C1229.9 1284.09 1257.37 1250.84 1279.35 1213.37C1285.63 1202.67 1292.29 1190.62 1299.32 1177.24C1307.7 1161.29 1314.97 1145.19 1318.8 1128.55C1320.37 1121.72 1321.3 1117.07 1321.6 1114.58C1322.95 1103 1315.39 1096.39 1304.78 1095.1C1295.05 1093.93 1283.89 1093.23 1271.31 1092.99C1259.66 1092.78 1249.75 1092.41 1241.58 1091.89C1222.66 1090.69 1192.83 1089.27 1152.09 1087.65C1116.27 1086.21 1082.49 1086.45 1036.66 1086.03C1022.09 1085.9 997.842 1085.43 963.91 1084.64C927.445 1083.77 890.122 1083.89 851.942 1085.01C817.785 1086 785.896 1089.36 749.122 1092.63C736.826 1093.72 719.075 1095.45 695.868 1097.82C691.934 1098.22 689.231 1098.94 687.757 1099.99Z" fill="#919191"/>
<path d="M1303.04 1112.52C1303.14 1112.53 1303.24 1112.56 1303.33 1112.62C1303.42 1112.67 1303.5 1112.74 1303.57 1112.82C1303.63 1112.91 1303.68 1113 1303.71 1113.11C1303.73 1113.21 1303.74 1113.32 1303.73 1113.42C1299.64 1141.14 1285.68 1166.28 1272.02 1190.8C1260.41 1211.67 1248.35 1230.15 1235.84 1246.27C1206.66 1283.87 1170.94 1315.25 1129 1342.68C1124.73 1345.48 1116.06 1351.23 1103 1359.92C1094.04 1365.89 1080.57 1375.82 1062.6 1389.72C1050.39 1399.16 1036.71 1407.78 1020.87 1416.05C1003.08 1425.35 987.986 1433.58 975.592 1440.73C975.387 1440.85 975.148 1440.89 974.914 1440.84C974.681 1440.8 974.47 1440.68 974.318 1440.49L706.072 1113.06C706.032 1113.01 706.006 1112.95 705.996 1112.89C705.987 1112.83 705.994 1112.76 706.017 1112.7C706.04 1112.65 706.079 1112.6 706.128 1112.56C706.177 1112.52 706.236 1112.5 706.297 1112.5C722.124 1110.75 737.668 1108.56 754.656 1107.26C791.215 1104.48 823.364 1101.5 858.096 1100.61C889.155 1099.8 919.044 1099.6 947.764 1100.01C984.944 1100.54 1009.86 1101.51 1050.13 1101.76C1080.49 1101.95 1106.65 1102.19 1128.6 1102.5C1152.98 1102.84 1191.74 1104.37 1244.88 1107.1C1265.41 1108.15 1282.92 1110.23 1303.04 1112.52Z" fill="#919191"/>
<path d="M1730.7 2000H1447.39C1445.82 1914.74 1444.23 1829.48 1442.62 1744.22C1441.13 1666.54 1439.75 1608.1 1438.48 1568.9C1438.31 1563.61 1438.58 1556.76 1434.69 1554.17C1430.48 1551.36 1425.43 1554.61 1425.06 1559.27C1424.67 1564.29 1424.48 1567.57 1424.49 1569.09C1425.4 1710.64 1428.14 1856.33 1430.47 2000H591.111C589.9 1848.74 588.016 1697.49 585.459 1546.25C585.399 1542.79 585.203 1538.75 584.872 1534.12C584.613 1530.56 584.083 1527.05 581.071 1525.49C579.025 1524.43 577.01 1524.48 575.025 1525.63C572.081 1527.34 571.641 1531.04 571.483 1534.39C571.287 1538.91 571.197 1543.7 571.212 1548.79C571.671 1699.2 572.814 1849.6 574.641 2000H283.011C283.011 1992.23 283.105 1977.66 283.293 1956.29C283.594 1921.59 282.737 1887.19 280.721 1853.07C278.668 1818.46 277.578 1787.35 277.45 1759.74C277.315 1732.74 275.927 1699.17 275.769 1676.25C275.544 1642.61 276.412 1609.81 278.375 1577.85C280.484 1543.53 287.004 1511.11 294.201 1474.36C306.407 1411.99 327.32 1352.26 358.375 1297.19C365.685 1284.24 372.43 1275.37 383.316 1260.95C388.587 1253.97 393.517 1248.13 398.104 1243.44C415.611 1225.56 429.731 1212.27 440.462 1203.59C457.751 1189.58 479.12 1176.73 504.568 1165.03C526.828 1154.8 550.78 1145.93 576.424 1138.44C577.732 1138.06 578.834 1137.93 579.729 1138.05C579.925 1138.07 580.11 1138.15 580.264 1138.27C580.417 1138.4 580.533 1138.56 580.597 1138.75C590.434 1167.08 605.29 1194.92 625.166 1222.24C649.046 1255.06 666.655 1277.41 690.242 1301.67C698.462 1310.12 709.385 1320.09 723.011 1331.57C746.414 1351.3 769.667 1369.45 792.769 1386.03C803.673 1393.86 829.452 1412.54 870.107 1442.08C890.862 1457.15 910.904 1472.71 930.231 1488.75C937.179 1494.51 942.466 1498.66 946.091 1501.21C952.265 1505.53 956.07 1508.29 957.506 1509.5C960.672 1512.14 964.188 1514.25 968.054 1515.8C993.299 1525.98 1020.33 1522.54 1045.08 1512.28C1058.59 1506.69 1071.42 1499.99 1083.55 1492.18C1083.63 1492.13 1083.72 1492.1 1083.81 1492.11C1083.9 1492.11 1083.98 1492.15 1084.05 1492.22C1084.12 1492.28 1084.16 1492.37 1084.16 1492.46C1084.17 1492.55 1084.15 1492.64 1084.09 1492.71C1073.24 1510.2 1075.93 1533.46 1096.19 1542.61C1098.34 1543.58 1101.38 1544.26 1103.53 1545.03C1103.84 1545.14 1104.12 1545.34 1104.32 1545.6C1104.52 1545.87 1104.63 1546.18 1104.66 1546.51C1104.98 1550.97 1104.86 1555.58 1104.31 1560.35C1103.53 1566.98 1101.39 1577.81 1097.87 1592.83C1093.42 1611.8 1085.66 1637.81 1084.32 1662.14C1082.82 1689.57 1093.19 1725.43 1120.92 1737.79C1122.97 1738.7 1124.79 1738.97 1126.37 1738.59C1127.93 1738.22 1128.93 1738.04 1129.36 1738.04C1129.56 1738.04 1129.75 1738.08 1129.93 1738.16C1130.1 1738.24 1130.26 1738.35 1130.39 1738.5C1133.92 1742.52 1137.23 1747.82 1140.32 1754.39C1146.06 1766.67 1163.73 1761.49 1158.12 1746.54C1155.26 1738.94 1151.51 1732.14 1146.87 1726.15C1143.59 1721.92 1143.79 1719.71 1144.7 1714.93C1145.13 1712.72 1144.23 1710.28 1142.85 1708.14C1136.04 1697.63 1131.9 1683.28 1129.6 1671.73C1124.25 1644.95 1133.04 1619.32 1139.86 1593.32C1141.53 1586.94 1143.04 1578.68 1144.38 1568.53C1146.29 1553.96 1146.39 1539.57 1144.67 1525.35C1144.64 1525.11 1144.68 1524.87 1144.79 1524.65C1144.89 1524.44 1145.06 1524.26 1145.27 1524.14C1149.49 1521.69 1151.34 1517.29 1152.64 1512.51C1155.22 1503.13 1154.39 1494.53 1150.13 1486.7C1143.08 1473.72 1127.16 1468.34 1113.05 1471.9C1112.99 1471.91 1112.92 1471.91 1112.87 1471.88C1112.81 1471.85 1112.76 1471.8 1112.73 1471.75C1112.71 1471.69 1112.7 1471.62 1112.71 1471.56C1112.73 1471.5 1112.76 1471.44 1112.81 1471.4C1136.24 1453.82 1155.21 1442.67 1189.18 1421.85C1198.39 1416.22 1208.09 1408.91 1218.31 1399.92C1244.9 1376.53 1266.36 1349.23 1282.7 1318C1291.08 1302 1300.38 1283.68 1308.27 1270.21C1313.69 1260.94 1319.47 1250.87 1325.54 1239.41C1332.59 1226.08 1340.02 1213.98 1349.41 1200.77C1360.27 1185.49 1370.36 1169.92 1379.66 1154.06C1385.32 1144.41 1389.75 1134.36 1392.95 1123.93C1392.99 1123.8 1393.07 1123.7 1393.18 1123.63C1393.29 1123.56 1393.42 1123.53 1393.55 1123.55C1423.43 1128.55 1451.93 1135.36 1480.76 1146.46C1509.8 1157.65 1535.25 1173.63 1557.12 1194.4C1583.02 1219.02 1604.26 1247.14 1620.82 1278.78C1635.82 1307.43 1648.96 1339.32 1660.26 1374.47C1666.94 1395.24 1673.52 1422.67 1680.01 1456.76C1686.58 1491.23 1691.21 1519.04 1693.91 1540.18C1701.77 1601.72 1706.21 1637.21 1707.23 1646.66C1708.58 1659.19 1709.8 1668.55 1710.67 1679.36C1714.18 1722.88 1718.13 1767.16 1722.55 1812.18C1723.26 1819.41 1723.81 1826.2 1724.21 1832.54C1724.99 1844.84 1725.42 1851.61 1725.49 1852.87C1727.62 1886.39 1729.39 1921.8 1730.79 1959.11C1731.27 1971.67 1731.24 1985.31 1730.7 2000ZM846.971 1779.4C850.776 1791.36 856.8 1802.44 865.042 1812.63C868.584 1817.02 873.649 1820.18 879.12 1816.68C884.049 1813.52 887.568 1806.19 883.18 1800.96C875.532 1791.82 868.313 1783.55 864.658 1772.54C864.577 1772.3 864.564 1772.03 864.622 1771.78C864.68 1771.53 864.806 1771.3 864.985 1771.12C870.693 1765.41 874.201 1762.55 873.321 1753.62C873.148 1751.84 872.317 1749.66 870.828 1747.07C868.745 1743.43 867.384 1739.98 866.745 1736.72C862.233 1713.69 869.418 1691.74 877.676 1670.58C883.282 1656.24 891.675 1642.64 898.352 1629.64C903.955 1618.76 907.617 1607.46 909.339 1595.75C910.828 1585.69 910.028 1576.2 908.764 1563.54C907.704 1552.9 906.486 1543.11 905.109 1534.18C905.079 1533.97 905.109 1533.76 905.195 1533.57C905.281 1533.38 905.42 1533.22 905.594 1533.11C918.849 1524.53 924.94 1507.42 918.634 1492.77C915.273 1484.97 908.223 1478.27 900.53 1475.08C887.159 1469.54 873.84 1470.02 860.575 1476.53C833.874 1489.6 830.411 1523.94 858.477 1538.13C858.865 1538.32 859.191 1538.63 859.417 1539C859.642 1539.37 859.758 1539.8 859.751 1540.24C859.518 1552.77 858.567 1566.44 856.897 1581.23C855.927 1589.87 854.814 1596.41 853.558 1600.85C852.032 1606.28 849.817 1612.54 846.914 1619.63C842.583 1630.17 828.414 1659.09 821.545 1679.41C816.029 1695.72 814.912 1712.42 814.528 1729.86C814.167 1746.61 819.653 1761.03 830.986 1773.12C834.423 1776.78 837.646 1778.62 840.654 1778.62C842.831 1778.63 844.805 1778.29 846.125 1778.61C846.321 1778.66 846.503 1778.76 846.651 1778.9C846.799 1779.03 846.909 1779.21 846.971 1779.4Z" fill="#919191"/>
<path d="M1135.67 1502.23C1135.61 1502.21 1135.09 1501.64 1134.1 1500.5C1132.58 1498.75 1128.83 1497.99 1125.47 1497.12C1107.09 1492.37 1098.13 1507.58 1100.78 1523.76C1100.8 1523.89 1100.78 1524.03 1100.72 1524.14C1100.66 1524.26 1100.57 1524.36 1100.45 1524.42C1100.34 1524.48 1100.21 1524.5 1100.08 1524.48C1099.95 1524.46 1099.83 1524.4 1099.74 1524.3C1094.77 1519.36 1094.36 1512.18 1097.14 1505.85C1100.92 1497.2 1107.47 1491.64 1116.78 1489.16C1126.27 1486.62 1135.44 1490.91 1136.39 1501.59C1136.4 1501.68 1136.39 1501.77 1136.35 1501.86C1136.32 1501.95 1136.26 1502.03 1136.19 1502.09C1136.12 1502.15 1136.04 1502.2 1135.95 1502.22C1135.86 1502.25 1135.76 1502.25 1135.67 1502.23Z" fill="#919191"/>
<path d="M902.652 1510.57C902.629 1510.65 902.58 1510.73 902.512 1510.78C902.444 1510.84 902.361 1510.87 902.273 1510.88C902.186 1510.88 902.1 1510.86 902.026 1510.81C901.952 1510.76 901.895 1510.7 901.862 1510.61C898.2 1501.57 891.563 1497.19 881.953 1497.5C870.571 1497.85 863.769 1507.7 861.49 1517.71C861.466 1517.82 861.409 1517.93 861.328 1518.01C861.247 1518.1 861.144 1518.16 861.03 1518.19C860.917 1518.22 860.797 1518.22 860.685 1518.18C860.573 1518.15 860.473 1518.08 860.396 1517.99C851.541 1507.82 859.336 1496.51 869.646 1491.72C878.399 1487.66 890.142 1487.76 897.959 1494.09C903.329 1498.43 904.434 1504.03 902.652 1510.57Z" fill="#919191"/>
<path d="M1126.97 1717.29C1125.85 1719.53 1124.34 1719.96 1122.44 1718.58C1119.59 1716.49 1116.79 1713.56 1114.06 1709.79C1102.21 1693.44 1100.08 1669.97 1103.2 1649.45C1104.28 1642.29 1106 1632.37 1108.03 1625.1C1111.58 1612.34 1115.5 1595.62 1119.78 1574.96C1121.74 1565.5 1122.64 1556.96 1122.46 1549.35C1122.25 1540.42 1118.82 1528.15 1118.19 1521.43C1117.97 1518.99 1117.99 1517.06 1118.26 1515.62C1118.34 1515.19 1118.55 1514.8 1118.85 1514.52C1119.15 1514.25 1119.51 1514.1 1119.88 1514.11C1125.25 1514.25 1127.36 1528.06 1127.64 1531.73C1129.05 1550.64 1127.57 1569.03 1123.2 1586.88C1122.85 1588.29 1119.94 1599.72 1114.46 1621.17C1111.55 1632.56 1110.16 1644.49 1110.31 1656.94C1110.49 1672.71 1115.36 1690.76 1121.27 1705C1122.91 1708.94 1124.78 1712.55 1126.89 1715.81C1127.03 1716.03 1127.11 1716.28 1127.12 1716.54C1127.13 1716.8 1127.08 1717.06 1126.97 1717.29Z" fill="#919191"/>
<path d="M882.247 1516.39C882.512 1516.29 882.807 1516.29 883.073 1516.39C883.34 1516.49 883.56 1516.68 883.691 1516.93C884.338 1518.2 884.778 1519.51 885.011 1520.86C888.493 1541.19 890.88 1559.33 892.174 1575.3C893.505 1591.77 890.245 1607.38 882.394 1622.13C876.099 1633.95 872.114 1641.33 870.437 1644.27C866.12 1651.82 860.845 1664.5 854.61 1682.33C850.519 1694.02 848.23 1706.83 847.741 1720.76C847.305 1732.98 849.595 1744.35 854.61 1754.86C854.81 1755.28 854.851 1755.76 854.727 1756.2C854.603 1756.65 854.321 1757.04 853.934 1757.3C851.084 1759.18 848.32 1760.29 845.643 1760.63C845.066 1760.71 844.48 1760.64 843.936 1760.44C843.391 1760.24 842.904 1759.91 842.518 1759.47C835.84 1751.96 832.415 1743.1 832.242 1732.91C832.121 1725.34 832.475 1717.36 833.302 1708.97C834.768 1694.28 838.536 1682.69 844.752 1668.2C845.263 1667.02 851.335 1653.26 862.969 1626.93C866.391 1619.18 869.151 1611.14 871.249 1602.82C872.73 1596.95 873.99 1588.54 875.028 1577.59C876.427 1562.84 877.137 1553.62 877.16 1549.92C877.228 1540.15 877.423 1532.67 877.746 1527.48C877.972 1523.87 878.999 1517.68 882.247 1516.39Z" fill="#919191"/>
<path d="M1743.99 2000H1730.7C1731.24 1985.31 1731.27 1971.68 1730.79 1959.11C1729.39 1921.8 1727.62 1886.39 1725.49 1852.87C1725.42 1851.61 1724.99 1844.84 1724.2 1832.54C1723.81 1826.2 1723.25 1819.41 1722.55 1812.18C1718.13 1767.16 1714.17 1722.88 1710.67 1679.36C1709.8 1668.55 1708.58 1659.19 1707.23 1646.66C1706.21 1637.21 1701.76 1601.72 1693.91 1540.18C1691.21 1519.04 1686.57 1491.24 1680.01 1456.76C1673.52 1422.67 1666.93 1395.24 1660.26 1374.47C1648.96 1339.32 1635.82 1307.43 1620.82 1278.78C1604.25 1247.14 1583.02 1219.02 1557.12 1194.4C1535.25 1173.63 1509.8 1157.65 1480.75 1146.46C1451.93 1135.36 1423.43 1128.55 1393.54 1123.55C1393.42 1123.53 1393.29 1123.56 1393.18 1123.63C1393.07 1123.7 1392.99 1123.8 1392.95 1123.93C1389.74 1134.36 1385.31 1144.41 1379.66 1154.06C1370.36 1169.92 1360.27 1185.49 1349.41 1200.77C1340.02 1213.98 1332.59 1226.08 1325.54 1239.41C1319.47 1250.87 1313.69 1260.94 1308.27 1270.21C1300.38 1283.68 1291.07 1302 1282.69 1318C1266.36 1349.23 1244.9 1376.53 1218.31 1399.92C1208.09 1408.91 1198.38 1416.22 1189.18 1421.85C1155.2 1442.67 1136.24 1453.82 1112.81 1471.4C1112.76 1471.44 1112.73 1471.5 1112.71 1471.56C1112.7 1471.62 1112.7 1471.69 1112.73 1471.75C1112.76 1471.8 1112.81 1471.85 1112.86 1471.88C1112.92 1471.91 1112.99 1471.91 1113.05 1471.9C1127.16 1468.34 1143.08 1473.72 1150.13 1486.7C1154.38 1494.53 1155.22 1503.13 1152.64 1512.51C1151.33 1517.29 1149.48 1521.69 1145.27 1524.14C1145.06 1524.26 1144.89 1524.44 1144.78 1524.65C1144.68 1524.87 1144.64 1525.11 1144.67 1525.35C1146.39 1539.57 1146.29 1553.96 1144.37 1568.53C1143.04 1578.68 1141.53 1586.94 1139.86 1593.32C1133.04 1619.32 1124.25 1644.95 1129.6 1671.73C1131.9 1683.28 1136.04 1697.63 1142.85 1708.14C1144.23 1710.28 1145.13 1712.72 1144.7 1714.94C1143.79 1719.71 1143.58 1721.92 1146.87 1726.15C1151.51 1732.14 1155.26 1738.94 1158.11 1746.54C1163.73 1761.49 1146.05 1766.67 1140.31 1754.39C1137.23 1747.82 1133.92 1742.52 1130.39 1738.5C1130.26 1738.35 1130.1 1738.24 1129.92 1738.16C1129.75 1738.08 1129.56 1738.04 1129.36 1738.04C1128.92 1738.04 1127.93 1738.22 1126.37 1738.59C1124.78 1738.97 1122.97 1738.7 1120.92 1737.79C1093.18 1725.43 1082.82 1689.57 1084.32 1662.14C1085.66 1637.81 1093.42 1611.8 1097.87 1592.83C1101.38 1577.81 1103.53 1566.98 1104.31 1560.35C1104.86 1555.58 1104.98 1550.97 1104.66 1546.51C1104.63 1546.18 1104.51 1545.87 1104.31 1545.6C1104.11 1545.34 1103.84 1545.14 1103.53 1545.03C1101.37 1544.26 1098.34 1543.58 1096.18 1542.61C1075.93 1533.46 1073.24 1510.2 1084.09 1492.71C1084.15 1492.64 1084.17 1492.55 1084.16 1492.46C1084.15 1492.37 1084.11 1492.28 1084.05 1492.22C1083.98 1492.15 1083.9 1492.11 1083.81 1492.11C1083.71 1492.1 1083.62 1492.13 1083.55 1492.18C1071.41 1499.99 1058.59 1506.69 1045.07 1512.28C1020.32 1522.54 993.297 1525.98 968.051 1515.8C964.186 1514.25 960.67 1512.15 957.504 1509.5C956.068 1508.29 952.263 1505.53 946.089 1501.21C942.464 1498.67 937.177 1494.51 930.228 1488.75C910.902 1472.71 890.86 1457.15 870.104 1442.08C829.45 1412.54 803.671 1393.86 792.767 1386.03C769.664 1369.45 746.412 1351.3 723.009 1331.57C709.382 1320.09 698.459 1310.12 690.24 1301.67C666.653 1277.41 649.044 1255.06 625.164 1222.24C605.288 1194.92 590.432 1167.08 580.595 1138.75C580.531 1138.56 580.415 1138.4 580.261 1138.27C580.108 1138.15 579.922 1138.07 579.727 1138.05C578.832 1137.93 577.73 1138.06 576.421 1138.44C550.777 1145.93 526.826 1154.8 504.566 1165.03C479.117 1176.73 457.749 1189.58 440.46 1203.59C429.728 1212.27 415.609 1225.56 398.102 1243.44C393.515 1248.13 388.585 1253.97 383.314 1260.95C372.428 1275.38 365.683 1284.24 358.373 1297.19C327.318 1352.26 306.404 1411.99 294.199 1474.36C287.002 1511.11 280.482 1543.53 278.373 1577.85C276.41 1609.81 275.541 1642.61 275.767 1676.25C275.925 1699.17 277.313 1732.74 277.448 1759.74C277.576 1787.35 278.666 1818.46 280.719 1853.07C282.735 1887.19 283.592 1921.59 283.291 1956.29C283.103 1977.66 283.009 1992.23 283.009 2000H267.487L266.754 1999.58C266.598 1999.49 266.474 1999.36 266.397 1999.2C266.321 1999.04 266.296 1998.86 266.325 1998.68C266.438 1998 266.498 1997.21 266.506 1996.33C266.837 1961.77 266.935 1938.36 266.799 1926.11C266.427 1892.75 264.667 1860.65 262.547 1822.38C260.392 1783.7 261.091 1746.18 259.884 1705.41C258.636 1663.62 259.208 1622.23 261.599 1581.22C262.547 1564.94 264.848 1544.25 267.995 1526.03C273.801 1492.5 278.899 1466.29 283.291 1447.4C294.526 1399.04 311.842 1350.48 334.729 1307.37C342.731 1292.3 352.763 1276.48 364.825 1259.91C380.106 1238.91 394.628 1222.23 408.39 1209.86C412.564 1206.11 418.192 1201.14 425.276 1194.96C442.219 1180.18 462.445 1167.84 481.712 1157.97C511.943 1142.5 542.039 1131.01 573.771 1121.53C574.133 1121.42 574.439 1121.18 574.626 1120.85C574.813 1120.52 574.866 1120.13 574.774 1119.76C566.743 1087.51 570.176 1056.9 585.073 1027.94C586.57 1025.03 589.345 1020.29 593.398 1013.71C602.05 999.673 612.485 989.927 627.431 983.283C652.62 972.104 679.862 966.486 707.521 960.722C714.109 959.346 731.398 956.522 759.388 952.25C805.555 945.197 851.447 942.173 897.064 943.181C926.28 943.82 957.801 945.185 991.627 947.276C1012.17 948.539 1036.89 950.765 1065.78 953.954C1146.13 962.82 1178.36 965.313 1229.34 974.225C1251.19 978.045 1271.42 983.862 1290.04 991.675C1317.45 1003.19 1340.99 1019.88 1360.66 1041.76C1377.21 1060.15 1388.37 1081.47 1394.15 1105.74C1394.24 1106.1 1394.42 1106.42 1394.69 1106.67C1394.96 1106.91 1395.3 1107.08 1395.67 1107.13C1436.6 1113.23 1476.34 1124.07 1513.31 1142.87C1537.91 1155.36 1560.06 1171.96 1579.76 1192.66C1607.6 1221.9 1628.73 1253.93 1645.75 1290.47C1666.07 1334.09 1680.98 1378.51 1690.48 1423.71C1698.31 1460.99 1704.74 1497.99 1709.78 1534.71C1711.49 1547.23 1715.55 1579.93 1721.96 1632.81C1726.78 1672.58 1729.48 1715.04 1733.03 1757.19C1734.67 1776.72 1738.16 1811.27 1739.7 1836.19C1741.93 1871.96 1743.62 1912.65 1744.78 1958.26C1745.17 1973.57 1744.91 1987.48 1743.99 2000ZM1206.11 1387.15C1226.94 1368.85 1244.66 1347.76 1259.25 1323.9C1267.19 1310.92 1275.07 1294.61 1283.55 1278.47C1291.47 1263.41 1302.35 1245.7 1311.06 1229.14C1313.97 1223.62 1316.79 1218.63 1319.53 1214.16C1324.71 1205.72 1327.76 1200.85 1328.69 1199.56C1342.84 1179.95 1354.79 1161.73 1364.54 1144.9C1367.86 1139.17 1370.33 1134.29 1371.95 1130.28C1377.03 1117.67 1373.2 1104.46 1369.07 1091.65C1365.55 1080.74 1360.52 1070.22 1353.32 1061C1324.57 1024.19 1282.06 1003.29 1236.9 994.067C1216.35 989.863 1194.17 986.362 1170.35 983.565C1166.03 983.061 1130.74 979.207 1064.48 972.002C1052.88 970.739 1035.88 968.63 1020 967.389C974.259 963.839 929.961 961.7 887.104 960.97C866.626 960.624 840.648 961.703 809.168 964.208C797.121 965.17 781.67 967.077 762.817 969.927C740.926 973.228 725.558 975.687 716.715 977.304C705.803 979.297 691.691 982.38 674.38 986.554C659.663 990.103 646.66 994.386 635.372 999.402C618.136 1007.07 606.168 1020.56 598.723 1037.24C583.584 1071.17 583.663 1108.61 599.76 1142.17C610.364 1164.28 617.177 1179.13 628.661 1196.2C642.821 1217.25 657.681 1237.27 673.24 1256.26C687.589 1273.78 701.272 1288.48 714.289 1300.37C738.001 1322.05 765.367 1344.18 796.388 1366.78C812.714 1378.67 840.606 1398.91 880.065 1427.5C900.527 1442.32 920.794 1458.04 940.866 1474.65C952.507 1484.29 963.505 1492.44 974.335 1498.93C976.568 1500.27 979.493 1501.39 983.111 1502.29C1001.82 1506.95 1021.44 1503.1 1039.52 1495.49C1055.11 1488.93 1069.96 1480.67 1084.08 1470.69C1087.59 1468.23 1094.41 1463.21 1104.54 1455.66C1128.06 1438.13 1148.02 1426.42 1179.17 1407.31C1187.99 1401.91 1196.97 1395.19 1206.11 1387.15ZM1136.39 1501.59C1135.44 1490.92 1126.27 1486.62 1116.77 1489.16C1107.46 1491.64 1100.91 1497.21 1097.13 1505.85C1094.36 1512.18 1094.76 1519.37 1099.74 1524.31C1099.83 1524.4 1099.95 1524.46 1100.07 1524.48C1100.2 1524.5 1100.33 1524.48 1100.45 1524.42C1100.56 1524.36 1100.66 1524.26 1100.72 1524.15C1100.77 1524.03 1100.8 1523.9 1100.78 1523.77C1098.12 1507.58 1107.08 1492.37 1125.47 1497.12C1128.83 1497.99 1132.57 1498.76 1134.1 1500.51C1135.08 1501.64 1135.61 1502.22 1135.67 1502.23C1135.76 1502.25 1135.85 1502.25 1135.94 1502.23C1136.04 1502.2 1136.12 1502.16 1136.19 1502.1C1136.26 1502.03 1136.32 1501.95 1136.35 1501.87C1136.38 1501.78 1136.4 1501.68 1136.39 1501.59ZM1126.97 1717.29C1127.08 1717.06 1127.13 1716.8 1127.12 1716.54C1127.11 1716.28 1127.03 1716.03 1126.89 1715.81C1124.78 1712.55 1122.91 1708.95 1121.27 1705C1115.36 1690.76 1110.49 1672.71 1110.31 1656.94C1110.16 1644.49 1111.55 1632.57 1114.46 1621.17C1119.94 1599.73 1122.85 1588.29 1123.2 1586.88C1127.57 1569.03 1129.05 1550.64 1127.65 1531.73C1127.36 1528.07 1125.25 1514.25 1119.88 1514.11C1119.51 1514.1 1119.15 1514.25 1118.85 1514.52C1118.55 1514.8 1118.34 1515.19 1118.26 1515.62C1117.99 1517.06 1117.97 1519 1118.19 1521.43C1118.82 1528.16 1122.25 1540.42 1122.46 1549.35C1122.64 1556.96 1121.75 1565.5 1119.78 1574.96C1115.5 1595.62 1111.59 1612.34 1108.03 1625.1C1106 1632.37 1104.28 1642.29 1103.2 1649.45C1100.08 1669.97 1102.21 1693.45 1114.06 1709.79C1116.79 1713.56 1119.59 1716.49 1122.45 1718.58C1124.34 1719.96 1125.85 1719.53 1126.97 1717.29Z" fill="black"/>
<path d="M686.71 1117.29C682.152 1111.73 681.487 1104.42 687.759 1099.99C689.233 1098.94 691.936 1098.22 695.869 1097.82C719.077 1095.46 736.828 1093.73 749.123 1092.64C785.897 1089.36 817.787 1086 851.944 1085.01C890.124 1083.9 927.447 1083.77 963.912 1084.64C997.843 1085.43 1022.09 1085.9 1036.66 1086.04C1082.49 1086.45 1116.28 1086.22 1152.09 1087.65C1192.83 1089.27 1222.66 1090.69 1241.58 1091.89C1249.75 1092.41 1259.66 1092.78 1271.31 1093C1283.89 1093.23 1295.05 1093.93 1304.78 1095.11C1315.4 1096.39 1322.95 1103 1321.6 1114.59C1321.31 1117.07 1320.37 1121.72 1318.8 1128.55C1314.97 1145.19 1307.7 1161.29 1299.32 1177.24C1292.29 1190.62 1285.63 1202.67 1279.35 1213.37C1257.37 1250.84 1229.9 1284.09 1196.94 1313.11C1178.61 1329.25 1160.64 1343.07 1143.03 1354.54C1119.39 1369.96 1103.54 1380.72 1095.5 1386.83C1071.54 1405.03 1056.16 1417.31 1032.8 1429.66C1010.32 1441.56 998.069 1447.65 981.667 1457.81C975.192 1461.83 969.902 1462.97 964.95 1456.92C826.435 1287.81 733.688 1174.61 686.71 1117.29ZM1303.03 1112.52C1282.92 1110.23 1265.4 1108.16 1244.87 1107.11C1191.73 1104.38 1152.97 1102.84 1128.59 1102.51C1106.64 1102.2 1080.49 1101.95 1050.13 1101.76C1009.86 1101.51 984.939 1100.54 947.759 1100.01C919.039 1099.61 889.15 1099.81 858.091 1100.61C823.359 1101.5 791.21 1104.48 754.651 1107.27C737.663 1108.56 722.118 1110.75 706.292 1112.5C706.231 1112.5 706.172 1112.53 706.123 1112.56C706.073 1112.6 706.035 1112.65 706.012 1112.71C705.989 1112.77 705.982 1112.83 705.991 1112.89C706.001 1112.96 706.027 1113.01 706.067 1113.06L974.312 1440.5C974.465 1440.68 974.676 1440.8 974.909 1440.85C975.142 1440.89 975.382 1440.85 975.587 1440.73C987.98 1433.58 1003.07 1425.36 1020.87 1416.05C1036.7 1407.78 1050.39 1399.17 1062.59 1389.72C1080.57 1375.83 1094.03 1365.89 1103 1359.92C1116.05 1351.23 1124.72 1345.48 1129 1342.69C1170.94 1315.25 1206.65 1283.87 1235.84 1246.27C1248.34 1230.16 1260.4 1211.67 1272.01 1190.81C1285.67 1166.28 1299.64 1141.14 1303.72 1113.42C1303.73 1113.32 1303.73 1113.21 1303.7 1113.11C1303.67 1113.01 1303.63 1112.91 1303.56 1112.83C1303.5 1112.74 1303.42 1112.67 1303.33 1112.62C1303.24 1112.57 1303.14 1112.53 1303.03 1112.52Z" fill="black"/>
<path d="M846.121 1778.61C844.801 1778.29 842.827 1778.64 840.65 1778.62C837.642 1778.62 834.419 1776.78 830.982 1773.12C819.65 1761.03 814.164 1746.61 814.525 1729.86C814.908 1712.42 816.025 1695.73 821.541 1679.41C828.411 1659.09 842.579 1630.18 846.91 1619.63C849.813 1612.54 852.028 1606.28 853.554 1600.85C854.81 1596.41 855.923 1589.87 856.893 1581.23C858.563 1566.44 859.514 1552.77 859.747 1540.24C859.754 1539.8 859.638 1539.37 859.413 1539C859.187 1538.63 858.861 1538.32 858.473 1538.13C830.407 1523.94 833.87 1489.6 860.571 1476.53C873.836 1470.02 887.155 1469.54 900.526 1475.08C908.219 1478.27 915.269 1484.98 918.631 1492.77C924.936 1507.42 918.845 1524.54 905.59 1533.11C905.416 1533.22 905.277 1533.38 905.191 1533.57C905.105 1533.76 905.075 1533.97 905.105 1534.18C906.482 1543.11 907.7 1552.9 908.76 1563.54C910.024 1576.2 910.825 1585.69 909.336 1595.75C907.613 1607.46 903.951 1618.76 898.349 1629.65C891.671 1642.64 883.278 1656.24 877.672 1670.58C869.415 1691.74 862.229 1713.69 866.741 1736.72C867.38 1739.98 868.741 1743.43 870.825 1747.07C872.314 1749.66 873.145 1751.84 873.318 1753.62C874.197 1762.55 870.689 1765.42 864.981 1771.12C864.802 1771.3 864.676 1771.53 864.618 1771.78C864.56 1772.03 864.573 1772.3 864.654 1772.54C868.309 1783.55 875.528 1791.82 883.177 1800.96C887.565 1806.19 884.045 1813.53 879.116 1816.68C873.645 1820.18 868.58 1817.02 865.038 1812.63C856.796 1802.44 850.772 1791.36 846.967 1779.4C846.905 1779.21 846.795 1779.04 846.647 1778.9C846.499 1778.76 846.317 1778.66 846.121 1778.61ZM902.646 1510.57C904.429 1504.03 903.323 1498.43 897.954 1494.09C890.136 1487.76 878.394 1487.66 869.64 1491.72C859.33 1496.52 851.535 1507.82 860.39 1517.99C860.467 1518.08 860.567 1518.15 860.679 1518.18C860.791 1518.22 860.911 1518.22 861.025 1518.19C861.138 1518.16 861.241 1518.1 861.323 1518.02C861.404 1517.93 861.46 1517.83 861.484 1517.71C863.763 1507.71 870.565 1497.85 881.947 1497.5C891.558 1497.2 898.194 1501.57 901.857 1510.62C901.889 1510.7 901.946 1510.77 902.02 1510.81C902.094 1510.86 902.181 1510.88 902.268 1510.88C902.355 1510.87 902.438 1510.84 902.506 1510.78C902.574 1510.73 902.623 1510.65 902.646 1510.57ZM882.24 1516.39C878.991 1517.68 877.965 1523.87 877.739 1527.48C877.416 1532.67 877.22 1540.15 877.153 1549.92C877.13 1553.62 876.42 1562.84 875.021 1577.59C873.983 1588.54 872.723 1596.95 871.242 1602.82C869.144 1611.14 866.384 1619.17 862.962 1626.93C851.328 1653.26 845.256 1667.02 844.744 1668.2C838.529 1682.69 834.761 1694.28 833.295 1708.97C832.468 1717.36 832.114 1725.34 832.235 1732.91C832.408 1743.1 835.833 1751.96 842.511 1759.47C842.897 1759.91 843.384 1760.24 843.929 1760.44C844.473 1760.64 845.059 1760.71 845.636 1760.63C848.313 1760.29 851.077 1759.17 853.927 1757.29C854.314 1757.04 854.596 1756.65 854.72 1756.2C854.844 1755.75 854.803 1755.28 854.603 1754.86C849.587 1744.34 847.298 1732.98 847.734 1720.76C848.223 1706.83 850.512 1694.02 854.603 1682.32C860.838 1664.5 866.113 1651.81 870.43 1644.26C872.107 1641.32 876.092 1633.95 882.387 1622.13C890.238 1607.38 893.498 1591.77 892.167 1575.3C890.873 1559.33 888.486 1541.19 885.004 1520.86C884.771 1519.5 884.331 1518.2 883.684 1516.93C883.553 1516.68 883.333 1516.48 883.066 1516.38C882.8 1516.28 882.505 1516.29 882.24 1516.39Z" fill="black"/>
<path d="M591.111 2000H574.642C572.814 1849.61 571.671 1699.2 571.213 1548.79C571.198 1543.71 571.288 1538.91 571.483 1534.4C571.641 1531.05 572.081 1527.35 575.025 1525.63C577.011 1524.48 579.026 1524.44 581.072 1525.5C584.083 1527.05 584.614 1530.56 584.873 1534.13C585.204 1538.75 585.399 1542.79 585.46 1546.25C588.016 1697.49 589.9 1848.74 591.111 2000Z" fill="black"/>
<path d="M1447.38 2000H1430.46C1428.14 1856.33 1425.4 1710.64 1424.48 1569.09C1424.48 1567.57 1424.67 1564.29 1425.06 1559.27C1425.42 1554.61 1430.47 1551.36 1434.68 1554.17C1438.57 1556.76 1438.3 1563.61 1438.47 1568.9C1439.75 1608.1 1441.13 1666.54 1442.61 1744.22C1444.23 1829.48 1445.82 1914.74 1447.38 2000Z" fill="black"/>
</g>
<defs>
<filter id="filter0_d_3158_698" x="-4" y="0" width="2008" height="2008" filterUnits="userSpaceOnUse" color-interpolation-filters="sRGB">
<feFlood flood-opacity="0" result="BackgroundImageFix"/>
<feColorMatrix in="SourceAlpha" type="matrix" values="0 0 0 0 0 0 0 0 0 0 0 0 0 0 0 0 0 0 127 0" result="hardAlpha"/>
<feOffset dy="4"/>
<feGaussianBlur stdDeviation="2"/>
<feComposite in2="hardAlpha" operator="out"/>
<feColorMatrix type="matrix" values="0 0 0 0 0 0 0 0 0 0 0 0 0 0 0 0 0 0 0.25 0"/>
<feBlend mode="normal" in2="BackgroundImageFix" result="effect1_dropShadow_3158_698"/>
<feBlend mode="normal" in="SourceGraphic" in2="effect1_dropShadow_3158_698" result="shape"/>
</filter>
<clipPath id="clip0_3158_698">
<rect width="2000" height="2000" fill="white"/>
</clipPath>
</defs>
</svg>
