<svg width="2000" height="2001" viewBox="0 0 2000 2001" fill="none" xmlns="http://www.w3.org/2000/svg">
<g filter="url(#filter0_d_3164_806)">
<path d="M1426.25 1992.38C1426.2 1992.36 1426.16 1992.35 1426.11 1992.33C1425.74 1992.23 1425.35 1992.2 1424.94 1992.24C1424.88 1992.24 1424.82 1992.24 1424.76 1992.24H1423.8C1423.74 1992.24 1423.68 1992.24 1423.62 1992.23L1422.73 1992.22L594.517 1992.05C593.901 1992.16 593.412 1992.08 593.051 1991.84C592.735 1991.63 592.573 1991.17 592.566 1990.48C591.498 1856.7 589.614 1706.65 586.914 1540.33C586.809 1533.92 586.478 1528.68 585.922 1524.62C584.861 1516.88 574.427 1516.93 573.671 1524.86C573.243 1529.38 573.043 1534.91 573.073 1541.47C573.291 1590.91 573.656 1663.42 574.168 1759.01C574.169 1759.07 574.159 1759.12 574.139 1759.17C574.119 1759.23 574.088 1759.27 574.049 1759.31C574.01 1759.35 573.964 1759.38 573.913 1759.41C573.861 1759.43 573.806 1759.44 573.75 1759.44L280.766 1765.18C280.694 1765.18 280.623 1765.17 280.556 1765.14C280.489 1765.11 280.428 1765.07 280.376 1765.02C280.325 1764.97 280.284 1764.91 280.256 1764.84C280.228 1764.77 280.214 1764.7 280.214 1764.63C280.53 1726.99 277.687 1676.54 278.533 1637.74C279.356 1600.59 280.056 1566.56 285.673 1530.74C288.298 1513.96 291.949 1493.55 296.627 1469.51C308.933 1406.23 330.152 1345.69 361.917 1290.01C369.215 1277.21 376.694 1267.61 386.655 1254.54C399.074 1238.28 413.942 1224.39 429.17 1210.29C452.836 1188.35 479.356 1172.35 509.633 1158.81C529.178 1150.05 549.426 1142.48 570.377 1136.09C576.115 1134.34 585.26 1131.76 597.811 1128.36C616.48 1123.3 629.746 1121.04 653.739 1116.27C678.905 1111.27 700.924 1108.67 730.039 1105.21C739.883 1104.05 751.144 1103 763.823 1102.06C792.013 1099.96 819.808 1097.4 849.024 1096.39C894.371 1094.84 941.342 1094.85 986.756 1096.25C1038.47 1097.85 1104.75 1096.84 1163.43 1098.92C1199.05 1100.18 1232.65 1101.77 1264.23 1103.69C1280.41 1104.68 1299.62 1106.71 1321.88 1109.78C1329.26 1110.81 1337.31 1111.7 1346.05 1112.46C1368.02 1114.36 1390.99 1118.54 1412.99 1122.81C1438.74 1127.81 1464.84 1135.45 1488.46 1145.69C1511.81 1155.82 1533.32 1169.52 1552.64 1187.38C1574.36 1207.44 1592.75 1229.93 1607.82 1254.86C1624.07 1281.74 1636.38 1309.68 1647.93 1340.42C1655.64 1360.94 1661.93 1381.15 1666.81 1401.06C1670.84 1417.49 1675.63 1440.71 1681.18 1470.71C1685.54 1494.21 1689.21 1517.63 1692.2 1540.98C1700.41 1604.89 1706.86 1652.57 1711.2 1711.91C1711.21 1711.96 1711.2 1712 1711.19 1712.05C1711.17 1712.09 1711.15 1712.13 1711.12 1712.16C1711.09 1712.2 1711.05 1712.23 1711.01 1712.24C1710.97 1712.26 1710.92 1712.27 1710.87 1712.28L1440.69 1718.83C1440.64 1718.83 1440.6 1718.82 1440.56 1718.81C1440.52 1718.79 1440.48 1718.77 1440.45 1718.74C1440.42 1718.71 1440.4 1718.68 1440.38 1718.64C1440.36 1718.6 1440.35 1718.56 1440.35 1718.51C1439.27 1665.47 1438.06 1613.97 1436.69 1564C1436.66 1562.55 1436.44 1559.65 1436.04 1555.28C1435.77 1552.38 1435.36 1549.64 1433.05 1548.2C1427.05 1544.48 1423.24 1550.22 1423.11 1555.86C1423.01 1560.35 1422.98 1564.95 1423.01 1569.68C1423.18 1600.45 1423.73 1651.49 1424.67 1722.79C1424.96 1745.15 1426.39 1834.61 1428.94 1991.17C1428.94 1991.25 1428.93 1991.32 1428.9 1991.4C1428.63 1992.05 1427.75 1992.38 1426.25 1992.38Z" fill="#919191"/>
<path d="M1726.4 1992.06L1446.96 1992.04C1445.95 1992.16 1445.43 1991.9 1445.42 1991.25C1444.07 1916.8 1442.51 1831.88 1440.73 1736.5C1440.73 1736.44 1440.74 1736.38 1440.76 1736.33C1440.78 1736.28 1440.82 1736.23 1440.86 1736.19C1440.9 1736.14 1440.94 1736.11 1441 1736.09C1441.05 1736.06 1441.11 1736.05 1441.16 1736.05L1712.41 1729.46C1712.47 1729.46 1712.53 1729.48 1712.58 1729.53C1712.62 1729.57 1712.65 1729.62 1712.66 1729.69C1717.54 1780.15 1720.78 1812.47 1723.05 1848.28C1724.57 1872.35 1726.21 1906.75 1727.99 1951.49C1728.57 1966.28 1728.57 1979.54 1727.97 1991.25C1727.94 1991.92 1727.41 1992.18 1726.4 1992.06Z" fill="white"/>
<path d="M573.345 1992.23L287.693 1992.05L286.825 1992.04C286.659 1992.04 286.496 1992 286.344 1991.94C286.192 1991.87 286.054 1991.78 285.939 1991.66C285.823 1991.54 285.733 1991.4 285.672 1991.25C285.611 1991.09 285.581 1990.93 285.584 1990.76C286.283 1936.78 286.238 1893.11 283.475 1846.03C281.79 1817.18 280.835 1796.01 280.609 1782.53C280.609 1782.43 280.631 1782.34 280.674 1782.25C280.717 1782.16 280.78 1782.09 280.857 1782.03C280.934 1781.97 281.023 1781.93 281.117 1781.91C281.211 1781.9 281.308 1781.9 281.399 1781.93C282.222 1782.17 283.52 1782.35 284.197 1782.33C410.115 1779.85 506.611 1777.98 573.683 1776.72C573.767 1776.72 573.85 1776.73 573.928 1776.76C574.006 1776.79 574.077 1776.83 574.137 1776.89C574.197 1776.95 574.244 1777.02 574.277 1777.1C574.31 1777.17 574.326 1777.26 574.326 1777.34L576.424 1991C576.428 1991.18 576.382 1991.35 576.292 1991.5C576.203 1991.65 576.073 1991.78 575.917 1991.86C575.225 1992.22 574.368 1992.34 573.345 1992.23Z" fill="white"/>
<path d="M1740.98 1992.06C1742.07 1992.29 1741.37 1992.48 1738.86 1992.63L1729.93 1992.91C1728.53 1992.84 1727.35 1992.55 1726.4 1992.06C1727.41 1992.18 1727.94 1991.92 1727.97 1991.26C1728.57 1979.54 1728.57 1966.28 1727.99 1951.49C1726.21 1906.75 1724.57 1872.35 1723.05 1848.28C1720.78 1812.47 1717.54 1780.16 1712.66 1729.69C1712.65 1729.63 1712.62 1729.57 1712.58 1729.53C1712.53 1729.48 1712.47 1729.46 1712.41 1729.46L1441.16 1736.05C1441.11 1736.05 1441.05 1736.06 1441 1736.09C1440.94 1736.11 1440.9 1736.14 1440.86 1736.19C1440.82 1736.23 1440.79 1736.28 1440.76 1736.33C1440.74 1736.39 1440.73 1736.44 1440.74 1736.5C1442.51 1831.88 1444.07 1916.8 1445.42 1991.26C1445.43 1991.9 1445.95 1992.17 1446.96 1992.04C1446.65 1992.39 1446.28 1992.59 1445.85 1992.65L1428.26 1992.88C1427.5 1993.03 1426.83 1992.86 1426.25 1992.37C1427.75 1992.37 1428.63 1992.04 1428.9 1991.39C1428.93 1991.32 1428.95 1991.24 1428.95 1991.17C1426.39 1834.61 1424.97 1745.15 1424.67 1722.78C1423.73 1651.48 1423.18 1600.45 1423.01 1569.68C1422.98 1564.95 1423.02 1560.34 1423.12 1555.86C1423.24 1550.22 1427.05 1544.48 1433.05 1548.2C1435.37 1549.63 1435.77 1552.37 1436.04 1555.27C1436.44 1559.64 1436.66 1562.55 1436.7 1563.99C1438.06 1613.96 1439.28 1665.47 1440.35 1718.51C1440.35 1718.55 1440.36 1718.59 1440.38 1718.63C1440.4 1718.67 1440.42 1718.71 1440.46 1718.74C1440.49 1718.77 1440.52 1718.79 1440.56 1718.8C1440.6 1718.82 1440.65 1718.83 1440.69 1718.82L1710.88 1712.27C1710.92 1712.27 1710.97 1712.26 1711.01 1712.24C1711.05 1712.22 1711.09 1712.19 1711.12 1712.16C1711.15 1712.12 1711.17 1712.09 1711.19 1712.04C1711.2 1712 1711.21 1711.95 1711.2 1711.91C1706.86 1652.56 1700.41 1604.88 1692.21 1540.98C1689.21 1517.63 1685.54 1494.2 1681.19 1470.7C1675.64 1440.7 1670.85 1417.49 1666.82 1401.06C1661.93 1381.14 1655.64 1360.93 1647.93 1340.41C1636.38 1309.68 1624.07 1281.73 1607.82 1254.85C1592.75 1229.92 1574.36 1207.43 1552.65 1187.37C1533.32 1169.52 1511.81 1155.81 1488.46 1145.68C1464.84 1135.44 1438.74 1127.8 1413 1122.81C1390.99 1118.53 1368.02 1114.36 1346.05 1112.45C1337.32 1111.69 1329.26 1110.8 1321.89 1109.78C1299.63 1106.7 1280.41 1104.67 1264.23 1103.69C1232.65 1101.77 1199.05 1100.18 1163.43 1098.91C1104.75 1096.84 1038.47 1097.84 986.759 1096.24C941.344 1094.84 894.373 1094.83 849.026 1096.39C819.81 1097.39 792.015 1099.95 763.826 1102.05C751.147 1102.99 739.885 1104.04 730.041 1105.21C700.927 1108.66 678.908 1111.27 653.741 1116.26C629.748 1121.04 616.482 1123.29 597.814 1128.36C585.262 1131.76 576.118 1134.33 570.38 1136.08C549.428 1142.48 529.18 1150.05 509.635 1158.8C479.359 1172.35 452.839 1188.35 429.173 1210.29C413.944 1224.39 399.077 1238.27 386.657 1254.54C376.697 1267.6 369.218 1277.2 361.919 1290C330.154 1345.68 308.936 1406.22 296.629 1469.51C291.951 1493.54 288.3 1513.95 285.676 1530.74C280.058 1566.55 279.359 1600.58 278.535 1637.73C277.689 1676.53 280.532 1726.98 280.216 1764.62C280.216 1764.7 280.231 1764.77 280.258 1764.84C280.286 1764.9 280.327 1764.97 280.379 1765.02C280.43 1765.07 280.491 1765.11 280.558 1765.14C280.625 1765.16 280.697 1765.18 280.769 1765.18L573.753 1759.43C573.808 1759.43 573.864 1759.42 573.915 1759.4C573.966 1759.38 574.013 1759.35 574.052 1759.31C574.091 1759.27 574.121 1759.22 574.141 1759.17C574.162 1759.12 574.171 1759.06 574.17 1759C573.659 1663.42 573.294 1590.9 573.076 1541.46C573.046 1534.91 573.245 1529.37 573.674 1524.86C574.429 1516.93 584.864 1516.87 585.924 1524.61C586.481 1528.67 586.811 1533.91 586.917 1540.32C589.616 1706.64 591.5 1856.69 592.568 1990.48C592.576 1991.17 592.737 1991.62 593.053 1991.83C593.414 1992.08 593.903 1992.15 594.52 1992.04C594.467 1992.35 594.501 1992.57 594.621 1992.71L576.449 1992.96L573.346 1992.23C574.369 1992.34 575.227 1992.21 575.918 1991.85C576.074 1991.77 576.204 1991.65 576.294 1991.5C576.384 1991.35 576.429 1991.17 576.426 1991L574.328 1777.34C574.328 1777.25 574.311 1777.17 574.279 1777.09C574.246 1777.02 574.198 1776.95 574.138 1776.89C574.078 1776.83 574.007 1776.79 573.929 1776.76C573.851 1776.73 573.768 1776.71 573.685 1776.72C506.612 1777.98 410.117 1779.85 284.198 1782.32C283.521 1782.34 282.224 1782.16 281.401 1781.93C281.309 1781.9 281.213 1781.89 281.118 1781.91C281.024 1781.93 280.935 1781.96 280.858 1782.02C280.781 1782.08 280.719 1782.16 280.676 1782.24C280.633 1782.33 280.611 1782.43 280.611 1782.52C280.837 1796.01 281.792 1817.17 283.476 1846.02C286.24 1893.11 286.285 1936.77 285.586 1990.76C285.583 1990.92 285.612 1991.09 285.673 1991.24C285.734 1991.4 285.825 1991.54 285.94 1991.65C286.056 1991.77 286.193 1991.87 286.345 1991.93C286.498 1992 286.661 1992.03 286.826 1992.03L287.695 1992.04C287.642 1992.35 287.676 1992.56 287.797 1992.7L269.59 1992.94C268.567 1992.74 267.891 1992.43 267.56 1992C268.492 1992.32 269.207 1992.2 269.703 1991.63C269.863 1991.45 269.951 1991.21 269.951 1990.97C269.906 1984.33 270.007 1969.76 270.256 1947.26C270.617 1913.5 269.462 1874.46 266.793 1830.14C264.864 1798.09 264.706 1775.61 264.097 1734.32C263.999 1727.17 263.675 1712.34 263.126 1689.83C262.239 1653.16 262.747 1617.09 264.649 1581.64C266.86 1540.62 274.813 1496.92 283.093 1457.69C293.44 1408.71 308.398 1363.48 327.966 1322.01C343.39 1289.31 362.954 1258.96 386.657 1230.97C398.626 1216.84 409.297 1206.77 424.604 1193.29C441.559 1178.35 459.686 1166.73 479.043 1156.44C500.882 1144.84 522.784 1135.18 544.751 1127.47C569.342 1118.82 592.41 1112.07 613.956 1107.19C619.528 1105.93 634.569 1103.22 659.077 1099.06C676.817 1096.05 693.546 1093.82 709.263 1092.35C723.882 1090.98 737.531 1089.36 752.512 1088.19C763.965 1087.28 780.825 1085.77 803.093 1083.63C815.787 1082.41 832.354 1081.49 852.794 1080.87C897.577 1079.5 945.612 1079.63 996.9 1081.26C1009.67 1081.66 1036.62 1081.96 1077.76 1082.17C1140.44 1082.5 1198.06 1085.09 1259.12 1088.76C1268.11 1089.3 1277.8 1089.41 1287.65 1090.47C1307.12 1092.57 1330.53 1095.21 1357.87 1098.38C1374.52 1100.32 1388.36 1102.2 1399.4 1104.01C1434.46 1109.77 1466.44 1118.36 1498.85 1132.86C1526.22 1145.09 1550.58 1161.8 1571.95 1182.99C1597.63 1208.46 1618.83 1237.82 1635.55 1271.09C1657.46 1314.67 1673.64 1359.11 1684.09 1404.39C1692.09 1439.08 1699.25 1478.38 1705.55 1522.28C1707.98 1539.2 1712.51 1575.49 1719.13 1631.17C1723.04 1663.98 1724.24 1683.82 1727.57 1725.89C1730.4 1761.67 1734.73 1800.53 1736.65 1834.55C1739.13 1878.74 1740.73 1918.19 1741.43 1952.9C1741.68 1964.51 1741.52 1977.56 1740.98 1992.06Z" fill="black"/>
<path d="M1423.63 1992.22C1423.6 1992.44 1423.3 1992.44 1422.73 1992.21L1423.63 1992.22Z" fill="black"/>
<path d="M1424.76 1992.23C1424.53 1992.61 1424.21 1992.61 1423.8 1992.23H1424.76Z" fill="black"/>
<path d="M1426.12 1992.32C1425.65 1992.49 1425.26 1992.46 1424.95 1992.23C1425.35 1992.2 1425.74 1992.23 1426.12 1992.32Z" fill="black"/>
</g>
<defs>
<filter id="filter0_d_3164_806" x="-4" y="0" width="2008" height="2008" filterUnits="userSpaceOnUse" color-interpolation-filters="sRGB">
<feFlood flood-opacity="0" result="BackgroundImageFix"/>
<feColorMatrix in="SourceAlpha" type="matrix" values="0 0 0 0 0 0 0 0 0 0 0 0 0 0 0 0 0 0 127 0" result="hardAlpha"/>
<feOffset dy="4"/>
<feGaussianBlur stdDeviation="2"/>
<feComposite in2="hardAlpha" operator="out"/>
<feColorMatrix type="matrix" values="0 0 0 0 0 0 0 0 0 0 0 0 0 0 0 0 0 0 0.25 0"/>
<feBlend mode="normal" in2="BackgroundImageFix" result="effect1_dropShadow_3164_806"/>
<feBlend mode="normal" in="SourceGraphic" in2="effect1_dropShadow_3164_806" result="shape"/>
</filter>
</defs>
</svg>
